<?xml version="1.0" encoding="UTF-8" standalone="no"?>
<!DOCTYPE svg PUBLIC "-//W3C//DTD SVG 1.1//EN" "http://www.w3.org/Graphics/SVG/1.1/DTD/svg11.dtd">
<svg width="100%" height="100%" viewBox="0 0 1369 1255" version="1.1" xmlns="http://www.w3.org/2000/svg" xmlns:xlink="http://www.w3.org/1999/xlink" xml:space="preserve" xmlns:serif="http://www.serif.com/" style="fill-rule:evenodd;clip-rule:evenodd;stroke-linejoin:round;stroke-miterlimit:2;">
    <g transform="matrix(1,0,0,1,0,-57)">
        <g>
            <path d="M480.317,774.917C423.825,732.375 329.883,667.537 328.971,666.908C328.683,666.708 328.388,666.504 328.113,666.296C316.067,657.221 301.754,652.421 286.729,652.421C270.096,652.421 254.117,658.35 241.367,669.379C241.15,669.546 240.933,669.729 240.729,669.921C240.642,670.004 240.55,670.083 240.463,670.171C240.275,670.354 240.096,670.537 239.925,670.729C235.679,675.008 218.783,693.596 219.721,717.508C220.704,742.596 241.775,764.546 259.275,778.546C259.425,778.662 259.575,778.779 259.729,778.887L384.096,867.65C395.312,875.654 397.929,891.3 389.925,902.521C385.238,909.083 377.621,913 369.529,913C364.321,913 359.313,911.392 355.042,908.346L229.904,819.029C229.567,818.787 229.233,818.537 228.925,818.292C190.625,787.946 170.7,754.308 169.717,718.3C168.846,686.492 183.021,661.521 195.071,646.171C196.813,643.95 197.583,641.117 197.196,638.317L157.6,350.937C152.225,311.958 118.571,282.562 79.317,282.562C75.675,282.562 71.988,282.817 68.375,283.317C47.421,286.208 28.854,297.083 16.083,313.937C3.313,330.787 -2.129,351.604 0.754,372.554L63.254,826.162C65.958,845.917 75.942,863.787 91.35,876.479L317.513,1062.72C323.346,1067.53 326.663,1074.62 326.621,1082.18L325.233,1300.24C325.217,1303.01 326.304,1305.68 328.258,1307.65C330.221,1309.61 332.875,1310.72 335.65,1310.72L563.021,1310.72C568.775,1310.72 573.438,1306.06 573.438,1300.3L573.438,979.942C573.442,845.029 530.283,812.537 480.317,774.917Z" style="fill:white;fill-rule:nonzero;"/>
            <path d="M1352.09,313.938C1339.32,297.083 1320.75,286.213 1299.8,283.325C1296.18,282.825 1292.49,282.571 1288.85,282.571C1249.6,282.571 1215.94,311.967 1210.57,350.946L1170.97,638.325C1170.59,641.121 1171.36,643.958 1173.1,646.179C1185.15,661.529 1199.32,686.5 1198.45,718.308C1197.47,754.312 1177.54,787.954 1139.26,818.288C1138.93,818.546 1138.6,818.796 1138.24,819.05L1013.12,908.35C1008.86,911.392 1003.84,913.004 998.627,913.004C990.552,913.004 982.931,909.083 978.244,902.525C970.239,891.304 972.856,875.658 984.073,867.65L1108.44,778.892C1108.59,778.783 1108.74,778.667 1108.89,778.55C1126.39,764.55 1147.46,742.6 1148.45,717.517C1149.46,691.742 1129.75,672.15 1127.21,669.746C1114.63,658.579 1098.38,652.429 1081.44,652.429C1066.42,652.429 1052.1,657.225 1040.06,666.3C1039.78,666.513 1039.49,666.717 1039.21,666.908C1038.28,667.542 944.339,732.379 887.852,774.921C837.885,812.542 794.727,845.038 794.727,979.95L794.727,1300.31C794.727,1306.07 799.389,1310.73 805.144,1310.73L1032.58,1310.73C1038.35,1310.73 1043.01,1306.06 1043.01,1300.31C1043.01,1299.84 1042.99,1299.38 1042.93,1298.92L1041.55,1082.19C1041.5,1074.63 1044.82,1067.53 1050.66,1062.73L1276.82,876.483C1292.22,863.796 1302.2,845.929 1304.91,826.187L1367.41,372.562C1370.3,351.604 1364.86,330.783 1352.09,313.937L1352.09,313.938Z" style="fill:white;fill-rule:nonzero;"/>
        </g>
        <path d="M690.025,662.883C690.313,662.833 690.604,662.804 690.888,662.75C691.833,662.575 692.754,662.35 693.671,662.104C693.779,662.075 693.892,662.05 694,662.021C695.021,661.733 696.025,661.396 697.008,661.021C697.021,661.017 697.029,661.012 697.029,661.012L697.088,660.992C697.533,660.821 697.988,660.667 698.417,660.479L988.471,548.862C1002.15,543.596 1011.17,530.454 1011.17,515.796L1011.06,208.479C1011.06,196.812 1005.31,185.9 995.692,179.296C994.225,178.292 992.688,177.446 991.117,176.679C990.042,176.125 988.938,175.617 987.792,175.162L696.454,59.921C688.033,56.596 678.658,56.612 670.258,59.979L380.467,176.05C379.308,176.512 378.192,177.033 377.108,177.604C375.513,178.379 373.942,179.233 372.463,180.254C362.863,186.858 357.129,197.762 357.125,209.417L357,516.742C356.996,531.442 366.071,544.617 379.808,549.854L671.708,661.058C672.267,661.271 672.833,661.433 673.4,661.612C673.675,661.7 673.942,661.8 674.217,661.883C675.696,662.321 677.192,662.658 678.696,662.9C678.988,662.95 679.292,662.983 679.588,663.021C681.158,663.233 682.733,663.375 684.312,663.375L684.442,663.375C684.75,663.375 685.05,663.337 685.358,663.329C686.133,663.308 686.917,663.283 687.687,663.208C688.479,663.133 689.25,663.004 690.025,662.883ZM683.508,130.979L878.217,208L683.808,282.729L489.683,208.608L683.508,130.979Z" style="fill:white;fill-rule:nonzero;"/>
    </g>
</svg>
