<?xml version="1.0" encoding="UTF-8" standalone="no"?><!DOCTYPE svg PUBLIC "-//W3C//DTD SVG 1.1//EN" "http://www.w3.org/Graphics/SVG/1.1/DTD/svg11.dtd"><svg width="100%" height="100%" viewBox="0 0 1872 1851" version="1.1" xmlns="http://www.w3.org/2000/svg" xmlns:xlink="http://www.w3.org/1999/xlink" xml:space="preserve" xmlns:serif="http://www.serif.com/" style="fill-rule:evenodd;clip-rule:evenodd;stroke-linejoin:round;stroke-miterlimit:2;"><rect id="Artboard2" x="0" y="0" width="1871.96" height="1850.62" style="fill:none;"/><path d="M1044.51,1813.79c-0,0 -42.882,-18.579 -85.426,-22.495c-78.318,-5.152 -67.367,9.63 -225.448,51.544c-133.853,25.872 -188.611,-44.124 -206.863,-67.592c-18.253,-23.468 -79.313,-121.001 -114.732,-167.751c-55.404,-57.039 -126.009,-58.373 -225.985,-117.339c-121.15,-71.453 -93.513,-196.795 -93.513,-196.795c-0,-0 29.466,-165.419 11.685,-222.287c-47.061,-92.515 -92.636,-188.978 -92.636,-188.978c-8.609,-10.417 -33.726,-116.36 40.899,-198.649c19.676,-21.696 73.683,-64.566 108.517,-100.658c22.687,-23.506 39.511,-45.243 39.511,-45.243c30.549,-31.857 55.799,-183.428 55.799,-183.428c6.253,-47.973 35.521,-125.984 116.882,-161.697c51.402,-22.562 180.232,-22.251 240.309,-25.894c60.078,-3.644 165.631,-95.957 165.631,-95.957c-0,-0 137.657,-158.49 317.77,-0c112.009,98.561 163.266,95.957 163.266,95.957c0,-0 24.916,5.322 158.432,9.594c139.068,4.45 182.253,119.712 182.253,119.712l43.497,175.941c1.891,63.081 106.199,146.153 106.199,146.153c0,0 101.382,77.237 115.238,145.766c20.582,101.798 -17.801,150.193 -47.283,207.439c-32.304,62.724 -51.734,97.954 -53.403,141.9c-1.668,43.946 4.181,99.65 16.983,195.949c4.22,105.63 -46.367,173.366 -163.412,214.879c-134.726,48.192 -147.699,75.01 -167.516,94.825c-46.198,46.193 -103.255,240.61 -262,231.106c-50.005,-2.993 -144.654,-36.002 -144.654,-36.002Zm-107.731,-1529.9c-353.913,0 -641.245,287.332 -641.245,641.245c-0,353.913 287.332,641.245 641.245,641.245c353.912,-0 641.244,-287.332 641.244,-641.245c0,-353.913 -287.332,-641.245 -641.244,-641.245Z" style="fill:#fff;"/><path d="M936.776,352.848c315.849,-0 572.279,256.429 572.279,572.279c0,315.85 -256.43,572.279 -572.279,572.279c-315.85,0 -572.28,-256.429 -572.28,-572.279c0,-315.85 256.43,-572.279 572.28,-572.279Zm-15.674,804.966c8.111,-3.868 15.548,-9.18 21.917,-15.762l321.068,-331.867c15.722,-16.25 24.344,-38.08 23.97,-60.687c-0.374,-22.607 -9.713,-44.14 -25.963,-59.862l-1.72,-1.663c-16.25,-15.722 -38.08,-24.344 -60.687,-23.97c-22.607,0.374 -44.14,9.713 -59.862,25.963l-276.969,286.284l-130.621,-130.621c-16.313,-16.313 -38.438,-25.477 -61.507,-25.477c-23.07,-0 -45.195,9.164 -61.507,25.477l-0.002,0.002c-16.313,16.312 -25.477,38.437 -25.477,61.507c0,23.069 9.164,45.194 25.477,61.507l192.633,192.632c15.354,15.355 36.179,23.981 57.893,23.981c21.715,-0 42.54,-8.626 57.894,-23.981l3.463,-3.463Z" style="fill:#fff;"/></svg>