<?xml version="1.0" encoding="UTF-8" standalone="no"?><!DOCTYPE svg PUBLIC "-//W3C//DTD SVG 1.1//EN" "http://www.w3.org/Graphics/SVG/1.1/DTD/svg11.dtd"><svg width="100%" height="100%" viewBox="0 0 612 582" version="1.1" xmlns="http://www.w3.org/2000/svg" xmlns:xlink="http://www.w3.org/1999/xlink" xml:space="preserve" xmlns:serif="http://www.serif.com/" style="fill-rule:evenodd;clip-rule:evenodd;stroke-linejoin:round;stroke-miterlimit:2;"><rect id="Artboard1" x="0" y="0" width="611.468" height="581.127" style="fill:none;"/><clipPath id="_clip1"><rect x="0" y="0" width="611.468" height="581.127"/></clipPath><g clip-path="url(#_clip1)"><path d="M547.943,156.073c21.09,40.236 33.023,86.014 33.023,134.557c-0,160.322 -130.161,290.483 -290.483,290.483c-160.322,0 -290.483,-130.161 -290.483,-290.483c-0,-160.322 130.161,-290.482 290.483,-290.482c68.451,-0 131.404,23.727 181.075,63.399c-16.455,12.242 -32.533,24.389 -48.172,36.426c-37.414,-25.829 -82.769,-40.961 -131.63,-40.961c-128.091,0 -232.085,103.994 -232.085,232.085c0,128.091 103.994,232.085 232.085,232.085c128.091,-0 232.085,-103.994 232.085,-232.085c0,-31.536 -6.304,-61.612 -17.718,-89.034c13.747,-15.33 27.692,-30.66 41.82,-45.99Z" style="fill:#59d400;"/><path d="M284.647,286.065c-0,-0 -64.28,-66.157 -93.04,-95.757c-7.922,-8.153 -20.499,-9.577 -30.042,-3.399c-4.496,2.909 -9.404,6.086 -14.024,9.077c-10.66,6.9 -14.251,20.818 -8.261,32.014c23.203,43.368 79.244,148.113 114.574,214.147c5.921,11.065 17.476,17.946 30.025,17.88c12.549,-0.067 24.031,-7.07 29.834,-18.197c108.113,-207.61 206.097,-308.909 291.368,-381.915c6.815,-5.813 8.063,-15.868 2.875,-23.17c-0.358,-0.509 -0.718,-1.016 -1.074,-1.517c-4.302,-6.055 -12.368,-8.083 -19.021,-4.782c-114.563,57.308 -220.703,145.596 -303.214,255.619Z" style="fill:#59d400;"/></g></svg>