<?xml version="1.0" encoding="UTF-8" standalone="no"?><!DOCTYPE svg PUBLIC "-//W3C//DTD SVG 1.1//EN" "http://www.w3.org/Graphics/SVG/1.1/DTD/svg11.dtd"><svg width="100%" height="100%" viewBox="0 0 1876 1876" version="1.1" xmlns="http://www.w3.org/2000/svg" xmlns:xlink="http://www.w3.org/1999/xlink" xml:space="preserve" xmlns:serif="http://www.serif.com/" style="fill-rule:evenodd;clip-rule:evenodd;stroke-linejoin:round;stroke-miterlimit:2;"><rect id="Artboard3" x="0" y="0" width="1875.2" height="1875.2" style="fill:none;"/><clipPath id="_clip1"><rect x="0" y="0" width="1875.2" height="1875.2"/></clipPath><g clip-path="url(#_clip1)"><path d="M937.6,0c517.476,0 937.6,420.124 937.6,937.6c0,517.476 -420.124,937.6 -937.6,937.6c-517.476,0 -937.6,-420.124 -937.6,-937.6c0,-517.476 420.124,-937.6 937.6,-937.6Zm-102.944,1407.01l713.26,-670.636c24.271,-22.822 38.474,-54.357 39.478,-87.658c1.004,-33.3 -11.273,-65.634 -34.127,-89.876l-1.497,-1.588c-22.833,-24.221 -54.353,-38.38 -87.626,-39.361c-33.273,-0.981 -65.573,11.295 -89.794,34.129l-623.473,587.749l-262.23,-284.301c-47.387,-51.375 -127.449,-54.608 -178.825,-7.221c-24.705,22.787 -39.331,54.465 -40.652,88.048c-1.322,33.583 10.769,66.313 33.607,90.971l345.759,373.312c23.759,25.653 56.776,40.76 91.721,41.968c34.944,1.207 68.925,-11.584 94.399,-35.536Z" style="fill:#fff;"/></g></svg>