<?xml version="1.0" encoding="UTF-8" standalone="no"?><!DOCTYPE svg PUBLIC "-//W3C//DTD SVG 1.1//EN" "http://www.w3.org/Graphics/SVG/1.1/DTD/svg11.dtd"><svg width="100%" height="100%" viewBox="0 0 2400 1867" version="1.1" xmlns="http://www.w3.org/2000/svg" xmlns:xlink="http://www.w3.org/1999/xlink" xml:space="preserve" xmlns:serif="http://www.serif.com/" style="fill-rule:evenodd;clip-rule:evenodd;stroke-linejoin:round;stroke-miterlimit:2;"><rect id="Artboard1" x="0" y="0" width="2400" height="1866.66" style="fill:none;"/><clipPath id="_clip1"><rect x="0" y="0" width="2400" height="1866.66"/></clipPath><g clip-path="url(#_clip1)"><path d="M1200,0.001c-336.667,0 -606.25,153.334 -802.5,335.833c-195,180.833 -325.417,397.499 -387.083,546.249c-13.75,32.917 -13.75,69.583 -0,102.5c61.666,148.749 192.083,365.416 387.083,546.249c196.25,182.499 465.833,335.832 802.5,335.832c336.667,0 606.25,-153.333 802.5,-335.832c195,-181.25 325.417,-397.5 387.5,-546.249c13.75,-32.917 13.75,-69.583 0,-102.5c-62.083,-148.75 -192.5,-365.416 -387.5,-546.249c-196.25,-182.499 -465.833,-335.833 -802.5,-335.833Zm-600,933.332c0,-329.15 270.85,-599.999 600,-599.999c329.15,0 600,270.849 600,599.999c0,329.149 -270.85,599.999 -600,599.999c-329.15,-0 -600,-270.85 -600,-599.999Zm600,-266.666c0,147.083 -119.583,266.666 -266.667,266.666c-29.583,-0 -57.916,-5 -84.583,-13.75c-22.917,-7.5 -49.583,6.667 -48.75,30.833c1.25,28.75 5.417,57.5 13.333,86.25c57.084,213.333 276.667,339.999 490,282.916c213.334,-57.083 340,-276.666 282.917,-489.999c-46.25,-172.916 -199.167,-289.166 -369.167,-296.249c-24.166,-0.834 -38.333,25.416 -30.833,48.75c8.75,26.666 13.75,55 13.75,84.583Z" style="fill:#fff;fill-rule:nonzero;"/></g></svg>