<?xml version="1.0" encoding="UTF-8" standalone="no"?><!DOCTYPE svg PUBLIC "-//W3C//DTD SVG 1.1//EN" "http://www.w3.org/Graphics/SVG/1.1/DTD/svg11.dtd"><svg width="100%" height="100%" viewBox="0 0 1610 1305" version="1.1" xmlns="http://www.w3.org/2000/svg" xmlns:xlink="http://www.w3.org/1999/xlink" xml:space="preserve" xmlns:serif="http://www.serif.com/" style="fill-rule:evenodd;clip-rule:evenodd;stroke-linejoin:round;stroke-miterlimit:2;"><rect id="Artboard1" x="0" y="0" width="1609.55" height="1304.89" style="fill:none;"/><clipPath id="_clip1"><rect x="0" y="0" width="1609.55" height="1304.89"/></clipPath><g clip-path="url(#_clip1)"><path d="M-0.599,875.878c-0,-0 83.904,-416.028 114.623,-568.341c6.454,-32.003 34.575,-55.019 67.222,-55.019c242.901,0 1191.36,0 1191.36,0l-0,-28.647c-0,-61.527 -49.878,-111.405 -111.405,-111.405l-829.491,0c-20.626,0 -37.347,-16.721 -37.347,-37.347c-0,-5 -0,-10.226 -0,-15.491c-0,-32.932 -26.697,-59.628 -59.628,-59.628l-275.703,-0c-32.932,0 -59.628,26.696 -59.628,59.628l-0,816.25Z" style="fill:#fff;"/><path d="M204.671,353.65c0,0 -138.514,678.104 -181.442,888.259c-3.071,15.038 0.778,30.66 10.484,42.55c9.707,11.89 24.243,18.788 39.592,18.788c236.914,-0 1079.16,-0 1357.08,-0c50.996,-0 93.765,-38.496 99.113,-89.211c18.397,-174.448 59.085,-560.261 79.123,-750.27c2.963,-28.096 -6.137,-56.129 -25.037,-77.127c-18.901,-20.998 -45.825,-32.989 -74.076,-32.989c-333.375,0 -1304.84,0 -1304.84,0Z" style="fill:#fff;"/></g></svg>