<?xml version="1.0" encoding="UTF-8" standalone="no"?><!DOCTYPE svg PUBLIC "-//W3C//DTD SVG 1.1//EN" "http://www.w3.org/Graphics/SVG/1.1/DTD/svg11.dtd"><svg width="100%" height="100%" viewBox="0 0 1921 1305" version="1.1" xmlns="http://www.w3.org/2000/svg" xmlns:xlink="http://www.w3.org/1999/xlink" xml:space="preserve" xmlns:serif="http://www.serif.com/" style="fill-rule:evenodd;clip-rule:evenodd;stroke-linejoin:round;stroke-miterlimit:2;"><rect id="Artboard2" x="0" y="0" width="1920.76" height="1304.89" style="fill:none;"/><clipPath id="_clip1"><rect x="0" y="0" width="1920.76" height="1304.89"/></clipPath><g clip-path="url(#_clip1)"><path d="M360.258,343.734c-29.605,0 -56.519,17.183 -68.979,44.039c-69.294,149.358 -291.079,627.393 -291.079,627.393l0,106.788c0,48.519 19.274,95.05 53.582,129.358c34.308,34.308 80.84,53.583 129.359,53.583c329.148,-0 1014.81,-0 1315.25,-0c87.203,-0 164.416,-56.343 191.019,-139.389c61.419,-191.726 170.764,-533.058 227.254,-709.399c8.389,-26.189 3.765,-54.809 -12.445,-77.023c-16.21,-22.215 -42.055,-35.35 -69.555,-35.35l-1474.4,0Z" style="fill:#fff;"/><path d="M385.49,16.978c-9.538,-10.795 -23.25,-16.978 -37.655,-16.978l-297.389,0c-13.326,-0 -26.106,5.294 -35.529,14.717c-9.423,9.423 -14.717,22.203 -14.717,35.529c0,183.519 0,806.911 0,806.911l269.76,-604.771l1510.87,-0l-0,-21.22c-0,-33.987 -27.552,-61.538 -61.538,-61.538c-252.9,-0 -1198.93,-0 -1198.93,-0c0,-0 -96.901,-109.679 -134.866,-152.65Z" style="fill:#fff;"/></g></svg>