<?xml version="1.0" encoding="UTF-8" standalone="no"?><!DOCTYPE svg PUBLIC "-//W3C//DTD SVG 1.1//EN" "http://www.w3.org/Graphics/SVG/1.1/DTD/svg11.dtd"><svg width="100%" height="100%" viewBox="0 0 1077 1232" version="1.1" xmlns="http://www.w3.org/2000/svg" xmlns:xlink="http://www.w3.org/1999/xlink" xml:space="preserve" xmlns:serif="http://www.serif.com/" style="fill-rule:evenodd;clip-rule:evenodd;stroke-linejoin:round;stroke-miterlimit:2;"><rect id="Artboard1" x="0" y="0" width="1076.27" height="1231.17" style="fill:none;"/><clipPath id="_clip1"><rect x="0" y="0" width="1076.27" height="1231.17"/></clipPath><g clip-path="url(#_clip1)"><g><path d="M609.11,1166.98c0.667,-114.253 -8.997,-277.98 29.004,-353.107c38.37,-75.855 93.358,-168.231 251.793,-194.682l0,132.228l186.317,-180.832l-186.317,-187.712l0,121.787c-228.415,23.469 -380.778,198.313 -396.664,428.688l-0,252.096c15.658,66.726 115.407,60.303 115.867,-18.466Z" style="fill:#797ef6;"/><path d="M542.773,619.186c18.761,-22.584 41.027,-43.768 67.014,-63.462l0,-367.186l126.869,0l-186.057,-188.538l-185.231,188.538l127.875,0l-0,382.945c18.478,15.508 34.665,31.473 49.53,47.703Z" style="fill:#797ef6;"/><path d="M516.989,656.244c-24.716,37.915 -41.332,84.47 -52.499,136.838c-44.234,-104.422 -143.523,-167.699 -276.724,-176.605l-0,140.702l-187.766,-188.19l187.766,-186.119l-0,118.801c129.292,5.623 240.506,53.688 329.223,154.573Z" style="fill:#797ef6;"/></g></g></svg>