<?xml version="1.0" encoding="UTF-8" standalone="no"?><!DOCTYPE svg PUBLIC "-//W3C//DTD SVG 1.1//EN" "http://www.w3.org/Graphics/SVG/1.1/DTD/svg11.dtd"><svg width="100%" height="100%" viewBox="0 0 2000 1661" version="1.1" xmlns="http://www.w3.org/2000/svg" xmlns:xlink="http://www.w3.org/1999/xlink" xml:space="preserve" xmlns:serif="http://www.serif.com/" style="fill-rule:evenodd;clip-rule:evenodd;stroke-linejoin:round;stroke-miterlimit:2;"><rect id="Artboard2" x="0" y="0" width="2000" height="1660.94" style="fill:none;"/><clipPath id="_clip1"><rect x="0" y="0" width="2000" height="1660.94"/></clipPath><g clip-path="url(#_clip1)"><path d="M1523.8,335.449l235.548,0c63.826,0 125.038,25.355 170.17,70.487c45.131,45.132 70.486,106.343 70.486,170.169l-0,633.692c0,63.826 -25.355,125.037 -70.486,170.169c-45.132,45.132 -106.344,70.487 -170.17,70.487l-75.824,-0l-0,209.767l-366.694,-209.767l-434.304,-0c-61.966,-0 -121.395,-24.617 -165.212,-68.434c-43.817,-43.817 -68.433,-103.245 -68.433,-165.212l-0,-63.536l632.895,0c64.189,0 125.748,-25.499 171.137,-70.887c45.388,-45.388 70.887,-106.948 70.887,-171.137l-0,-575.798Z" style="fill:#fff;"/><path d="M316.183,1119.32l-74.159,0c-64.189,0 -125.749,-25.499 -171.137,-70.887c-45.388,-45.388 -70.887,-106.948 -70.887,-171.137l0,-635.301c0,-64.189 25.499,-125.748 70.887,-171.137c45.388,-45.388 106.948,-70.887 171.137,-70.887l1005.8,0c64.189,0 125.748,25.499 171.137,70.887c45.388,45.389 70.887,106.948 70.887,171.137l-0,635.301c-0,64.189 -25.499,125.749 -70.887,171.137c-45.389,45.388 -106.948,70.887 -171.137,70.887l-566.636,0l-365.001,207.303l0,-207.303Zm527.578,-441.128l-84.86,77.087c-3.417,1.14 156.28,164.431 327.401,40.434c121.093,-115.356 59.878,-241.367 -76.936,-288.991c-24.412,-9.827 -56.479,-20.829 -79.672,-30.336c-36.537,-14.976 -57.379,-29.934 -39.848,-58.898c54.959,-57.269 147.122,8.989 147.122,8.989l75.208,-87.045c-49.542,-40.635 -96.423,-62.328 -186.256,-59.152c-52.391,2.712 -91.48,23.089 -129.439,70.455c-41.049,51.222 -35.324,136.25 4.628,179.652c36.68,36.325 40.784,31.683 77.56,47.971c28.309,12.538 61.657,26.516 107.777,43.537c-0,-0 84.767,37.059 22.92,86.901c-79.349,45.536 -164.596,-28.696 -165.605,-30.604Zm-0,-0l0.032,-0.03c-0.041,-0.017 -0.051,-0.006 -0.032,0.03Zm-500.367,-399.298l1.385,560.664l303.481,0l-0,-118.585l-186.272,-0l-0,-100.402l171.748,0l0,-122.515l-171.748,-0l-0,-100.907l186.443,-0l-0.171,-117.175l-304.866,-1.08Z" style="fill:#fff;"/></g></svg>