<?xml version="1.0" encoding="UTF-8" standalone="no"?><!DOCTYPE svg PUBLIC "-//W3C//DTD SVG 1.1//EN" "http://www.w3.org/Graphics/SVG/1.1/DTD/svg11.dtd"><svg width="100%" height="100%" viewBox="0 0 1600 2134" version="1.1" xmlns="http://www.w3.org/2000/svg" xmlns:xlink="http://www.w3.org/1999/xlink" xml:space="preserve" xmlns:serif="http://www.serif.com/" style="fill-rule:evenodd;clip-rule:evenodd;stroke-linejoin:round;stroke-miterlimit:2;"><path d="M898.75,2080c213.75,-267.5 701.25,-915.833 701.25,-1280c0,-441.667 -358.333,-800 -800,-800c-441.667,0 -800,358.333 -800,800c0,364.167 487.5,1012.5 701.25,1280c51.25,63.75 146.25,63.75 197.5,0Zm-98.75,-1546.67c146.289,0 266.667,120.378 266.667,266.667c-0,146.289 -120.378,266.667 -266.667,266.667c-146.289,-0 -266.667,-120.378 -266.667,-266.667c0,-146.289 120.378,-266.667 266.667,-266.667Z" style="fill:#fff;fill-rule:nonzero;"/></svg>