<?xml version="1.0" encoding="UTF-8" standalone="no"?><!DOCTYPE svg PUBLIC "-//W3C//DTD SVG 1.1//EN" "http://www.w3.org/Graphics/SVG/1.1/DTD/svg11.dtd"><svg width="100%" height="100%" viewBox="0 0 5000 715" version="1.1" xmlns="http://www.w3.org/2000/svg" xmlns:xlink="http://www.w3.org/1999/xlink" xml:space="preserve" xmlns:serif="http://www.serif.com/" style="fill-rule:evenodd;clip-rule:evenodd;stroke-linejoin:round;stroke-miterlimit:2;"><rect id="Artboard1" x="0" y="0" width="5000" height="714.629" style="fill:none;"/><g id="Capa-1" serif:id="Capa 1"><g><path d="M0,567.605l0,-4.394c0,-0.484 1.581,-4.637 4.762,-12.45c3.172,-7.803 6.957,-17.941 11.352,-30.396c4.395,-12.449 8.79,-26.112 13.185,-41.013c4.389,-14.891 8.17,-31.367 11.352,-49.435c3.166,-18.062 4.762,-34.906 4.762,-50.537l-0,-213.855c-0,-10.255 -1.103,-21.355 -3.298,-33.326c-2.199,-11.961 -5.014,-22.945 -8.427,-32.958c-3.418,-10.003 -6.841,-19.16 -10.249,-27.466c-3.423,-8.297 -6.227,-15.017 -8.422,-20.142c-2.2,-5.125 -3.298,-7.929 -3.298,-8.422l0,-2.93l175.777,0l136.223,328.114l118.65,-328.114l169.181,0l0,2.93c0,0.493 -0.735,3.297 -2.195,8.422c-1.47,5.125 -3.423,11.845 -5.859,20.142c-2.452,8.306 -4.763,17.463 -6.962,27.466c-2.195,10.013 -4.028,20.997 -5.488,32.958c-1.47,11.971 -2.2,23.071 -2.2,33.326l0,276.842c0,10.254 0.73,21.364 2.2,33.32c1.46,11.972 3.293,22.961 5.488,32.964c2.199,10.013 4.51,19.165 6.962,27.461c2.436,8.306 4.389,15.017 5.859,20.142c1.46,5.129 2.195,7.943 2.195,8.422l0,2.929l-191.89,0l-0,-2.929c-0,-0.479 0.735,-3.293 2.2,-8.422c1.464,-5.125 3.408,-11.836 5.859,-20.142c2.437,-8.296 4.763,-17.448 6.957,-27.461c2.195,-10.003 4.028,-20.992 5.498,-32.964c1.46,-11.956 2.195,-23.066 2.195,-33.32l-0,-292.226l-150.143,417.464l-40.278,0l-168.457,-417.464c-0.488,3.423 -0.73,8.548 -0.73,15.384l-0,213.855c-0,15.631 1.581,32.475 4.762,50.537c3.167,18.068 6.957,34.544 11.352,49.435c4.395,14.901 8.785,28.564 13.185,41.013c4.394,12.455 8.17,22.593 11.352,30.396c3.166,7.813 4.757,11.966 4.757,12.45l-0,4.394l-128.169,0Z" style="fill:#797ef6;fill-rule:nonzero;"/><path d="M801.242,328.847c-0,6.348 0.483,15.873 1.465,28.559l93.015,-29.294c0,-69.818 -15.631,-104.73 -46.873,-104.73c-31.745,0 -47.607,33.21 -47.607,99.605l-0,5.86Zm-94.476,-88.621c36.125,-33.693 84.226,-50.532 144.278,-50.532c33.2,-0 62,5.613 86.421,16.839c24.416,11.241 43.087,26.253 56.035,45.045c12.927,18.803 22.336,38.577 28.196,59.322c5.855,20.761 8.785,42.604 8.785,65.55l-225.575,-0c9.762,74.223 45.157,111.324 106.195,111.324c33.694,0 69.577,-10.732 107.665,-32.228l2.93,2.2c-8.79,28.815 -28.569,55.788 -59.327,80.928c-30.759,25.156 -69.094,37.721 -114.985,37.721c-23.438,0 -46.389,-3.791 -68.846,-11.352c-22.463,-7.566 -43.334,-18.918 -62.62,-34.056c-19.29,-15.127 -34.791,-35.521 -46.505,-61.154c-11.719,-25.634 -17.579,-54.807 -17.579,-87.524c-0,-60.535 18.309,-107.901 54.932,-142.083" style="fill:#797ef6;fill-rule:nonzero;"/><path d="M1289.01,507.547c12.198,0 25.876,-3.659 41.013,-10.984c-1.465,-7.325 -2.2,-15.379 -2.2,-24.169l0,-192.621c-13.179,-8.291 -27.093,-12.449 -41.742,-12.449c-42,0 -62.987,36.87 -62.987,110.595c-0,86.42 21.974,129.628 65.916,129.628m-172.846,-269.517c27.833,-32.228 62.005,-48.337 102.535,-48.337c21.969,-0 42.845,5.009 62.619,15.012c19.774,10.012 35.269,24.536 46.505,43.58l0,-90.086c0,-10.254 -1.223,-21.239 -3.659,-32.958c-2.447,-11.72 -5.377,-22.452 -8.79,-32.229c-3.418,-9.756 -6.841,-18.545 -10.249,-26.363c-3.424,-7.803 -6.353,-14.156 -8.795,-19.044l-4.39,-8.055l0,-2.93l173.577,-18.309l-0,424.055c-0,10.254 0.73,21.364 2.2,33.325c1.46,11.967 3.292,22.956 5.487,32.959c2.2,10.013 4.511,19.165 6.962,27.461c2.437,8.306 4.39,15.017 5.86,20.142c1.46,5.129 2.195,7.943 2.195,8.422l-0,2.929l-124.504,0c-1.47,-2.436 -5.986,-9.635 -13.552,-21.601c-7.576,-11.961 -12.817,-22.09 -15.747,-30.396c-26.857,40.036 -63.48,60.052 -109.859,60.052c-39.549,0 -74.465,-17.086 -104.73,-51.267c-30.281,-34.167 -45.413,-82.998 -45.413,-146.473c-0,-60.541 13.919,-107.172 41.748,-139.889" style="fill:#797ef6;fill-rule:nonzero;"/><path d="M1560.72,23.439c16.114,-15.621 35.631,-23.439 58.592,-23.439c22.945,0 42.478,7.944 58.592,23.801c16.114,15.873 24.169,35.043 24.169,57.495c-0,22.462 -8.055,41.506 -24.169,57.127c-16.608,16.115 -36.14,24.169 -58.592,24.169c-22.462,0 -41.874,-7.929 -58.23,-23.801c-16.361,-15.863 -24.531,-35.033 -24.531,-57.495c-0,-22.452 8.054,-41.748 24.169,-57.857m-24.169,532.449c1.465,-4.878 3.408,-11.468 5.86,-19.774c2.436,-8.301 4.762,-17.453 6.957,-27.466c2.195,-10.003 4.027,-20.987 5.492,-32.959c1.465,-11.956 2.195,-23.071 2.195,-33.32l-0,-123.044c-0,-10.255 -0.73,-21.355 -2.195,-33.326c-1.465,-11.956 -3.297,-22.941 -5.492,-32.954c-2.195,-10.003 -4.521,-19.16 -6.957,-27.466c-2.452,-8.296 -4.395,-15.017 -5.86,-20.141c-1.465,-5.125 -2.2,-7.929 -2.2,-8.423l-0,-2.929l160.397,-0l0,248.283c0,10.249 0.73,21.364 2.195,33.32c1.465,11.972 3.297,22.956 5.492,32.959c2.2,10.013 4.511,19.165 6.962,27.466c2.432,8.306 4.39,15.012 5.86,20.136c1.46,5.13 2.195,7.944 2.195,8.428l0,2.929l-183.101,0l-0,-2.929c-0,-0.484 0.735,-3.414 2.2,-8.79" style="fill:#797ef6;fill-rule:nonzero;"/><path d="M1755.54,564.676c-0,-0.483 0.735,-3.292 2.195,-8.422c1.47,-5.125 3.297,-11.835 5.497,-20.142c2.195,-8.296 4.505,-17.453 6.957,-27.461c2.437,-10.002 4.395,-20.992 5.855,-32.963c1.47,-11.956 2.2,-23.071 2.2,-33.321l-0,-123.039c-0,-10.26 -0.73,-21.36 -2.2,-33.326c-1.46,-11.961 -3.418,-22.945 -5.855,-32.958c-2.452,-10.003 -4.762,-19.16 -6.957,-27.466c-2.2,-8.297 -4.027,-15.017 -5.497,-20.142c-1.46,-5.125 -2.195,-7.929 -2.195,-8.422l-0,-2.93l160.392,0l-0,62.252c10.738,-18.546 26.117,-34.292 46.143,-47.235c20.015,-12.933 43.691,-19.412 71.041,-19.412c35.159,0 64.2,10.874 87.156,32.596c22.946,21.728 34.418,51.389 34.418,88.983l0,131.099c0,10.25 0.735,21.365 2.2,33.321c1.465,11.971 3.413,22.961 5.86,32.963c2.442,10.008 4.762,19.165 6.957,27.461c2.195,8.307 4.027,15.017 5.492,20.142c1.465,5.13 2.2,7.939 2.2,8.422l0,2.93l-183.096,-0l0,-2.93c0,-0.483 0.73,-3.292 2.195,-8.422c1.465,-5.125 3.292,-11.835 5.492,-20.142c2.2,-8.296 4.511,-17.453 6.957,-27.461c2.442,-10.002 4.395,-20.992 5.86,-32.963c1.465,-11.956 2.195,-23.071 2.195,-33.321l0,-111.325c0,-37.594 -17.574,-56.875 -52.732,-57.857l-2.93,0c-13.673,0 -28.811,3.66 -45.408,10.985l-0,158.197c-0,10.25 0.735,21.365 2.2,33.321c1.465,11.971 3.408,22.961 5.855,32.963c2.441,10.008 4.762,19.165 6.962,27.461c2.195,8.307 4.027,15.017 5.492,20.142c1.465,5.13 2.2,7.939 2.2,8.422l-0,2.93l-183.101,-0l-0,-2.93Z" style="fill:#797ef6;fill-rule:nonzero;"/><path d="M2369.28,481.183c9.268,13.184 22.704,19.774 40.283,19.774c10.255,-0 19.523,-3.172 27.829,-9.52c-1.465,-8.296 -2.195,-16.844 -2.195,-25.634l0,-92.28c-6.353,-1.948 -13.672,-2.93 -21.974,-2.93c-39.065,0 -58.592,20.504 -58.592,61.522c0,20.021 4.873,36.377 14.649,49.068m-157.467,-27.099c0,-36.13 13.668,-65.424 41.018,-87.886c27.34,-22.452 60.052,-33.693 98.14,-33.693c29.777,-0 57.857,5.381 84.226,16.114l0,-40.283c0,-15.616 -0.126,-27.099 -0.367,-34.423c-0.252,-7.32 -0.856,-15.38 -1.833,-24.169c-0.981,-8.785 -2.562,-14.886 -4.762,-18.309c-2.195,-3.408 -5.251,-5.125 -9.152,-5.125c-12.213,0 -32.591,8.674 -61.155,26.001c-28.563,17.338 -54.081,34.549 -76.533,51.635l-33.689,26.364l-3.665,-0l0,-115.714c72.749,-16.598 134.029,-24.904 183.832,-24.904c51.267,-0 88.253,11.845 110.957,35.521c22.704,23.685 34.056,55.053 34.056,94.113l-0,125.968c-0,25.398 2.31,41.381 6.957,47.976c4.636,6.589 9.892,9.887 15.746,9.887c6.343,-0 14.156,-2.442 23.439,-7.325l2.195,2.195c-1.465,22.467 -10.139,40.902 -26.001,55.295c-15.873,14.397 -37.237,21.606 -64.079,21.606c-46.878,0 -76.665,-21.239 -89.356,-63.717c-9.283,17.096 -23.318,31.982 -42.111,44.678c-18.802,12.686 -41.873,19.039 -69.214,19.039c-37.111,0 -66.168,-12.198 -87.15,-36.618c-21.003,-24.411 -31.499,-52.481 -31.499,-84.226" style="fill:#797ef6;fill-rule:nonzero;"/><path d="M2887.07,111.324c52.239,-52.239 117.914,-78.366 197.016,-78.366c58.098,-0 123.28,13.678 195.545,41.013l0,157.467l-6.59,0c0,-0.483 -4.279,-6.957 -12.816,-19.411c-8.548,-12.45 -16.235,-23.308 -23.072,-32.591c-6.841,-9.268 -16.602,-21.239 -29.293,-35.883c-12.706,-14.655 -24.663,-26.737 -35.889,-36.256c-11.236,-9.52 -24.168,-17.947 -38.818,-25.266c-14.644,-7.325 -28.815,-10.99 -42.478,-10.99l-1.465,0c-35.153,0 -62.987,21.128 -83.496,63.354c-20.504,42.237 -30.758,98.755 -30.758,169.55c-0,70.8 10.622,127.434 31.856,169.911c21.244,42.483 51.635,63.974 91.188,64.457c18.057,0 36.86,-3.906 56.392,-11.724l0,-106.925c0,-10.254 -1.958,-21.355 -5.859,-33.326c-3.912,-11.956 -8.548,-22.945 -13.915,-32.958c-5.381,-10.003 -10.868,-19.155 -16.482,-27.466c-5.613,-8.292 -10.375,-15.012 -14.281,-20.142c-3.912,-5.125 -5.855,-7.929 -5.855,-8.417l-0,-2.93l214.59,0l-0,2.93c-0,0.488 -0.368,3.292 -1.098,8.417c-0.73,5.13 -1.717,11.85 -2.93,20.142c-1.228,8.311 -2.451,17.463 -3.66,27.466c-1.223,10.013 -2.199,21.002 -2.929,32.958c-0.735,11.971 -1.098,23.072 -1.098,33.326l0,98.14c-26.369,13.673 -61.285,26.732 -104.735,39.181c-43.464,12.449 -85.449,18.677 -125.974,18.677c-75.688,-0 -138.307,-25.267 -187.858,-75.804c-49.561,-50.533 -74.334,-115.835 -74.334,-195.913c0,-75.678 26.364,-139.888 79.096,-192.621" style="fill:#1e2f97;fill-rule:nonzero;"/><path d="M3352.87,197.013l0,-2.929l160.392,-0l0,79.831c26.369,-59.564 63.717,-89.351 112.06,-89.351c14.649,0 30.265,2.688 46.873,8.055l-21.969,145.018l-3.665,-0c-31.257,-36.13 -62.509,-54.203 -93.746,-54.203c-13.184,0 -26.368,3.182 -39.553,9.525l0,149.408c0,10.249 0.735,21.364 2.2,33.32c1.465,11.972 3.408,22.961 5.86,32.964c2.436,10.013 4.757,19.165 6.957,27.461c2.195,8.306 4.027,15.017 5.492,20.142c1.465,5.129 2.2,7.943 2.2,8.422l0,2.929l-183.101,0l0,-2.929c0,-0.479 0.735,-3.293 2.195,-8.422c1.47,-5.125 3.297,-11.836 5.497,-20.142c2.195,-8.296 4.506,-17.448 6.957,-27.461c2.437,-10.003 4.395,-20.992 5.855,-32.964c1.47,-11.956 2.2,-23.071 2.2,-33.32l-0,-123.039c-0,-10.255 -0.73,-21.355 -2.2,-33.326c-1.46,-11.961 -3.418,-22.946 -5.855,-32.959c-2.451,-10.003 -4.762,-19.16 -6.957,-27.466c-2.2,-8.296 -4.027,-15.017 -5.497,-20.141c-1.46,-5.125 -2.195,-7.929 -2.195,-8.423" style="fill:#1e2f97;fill-rule:nonzero;"/><path d="M3849.42,380.113c0,108.395 16.351,162.592 49.068,162.592c33.2,0 49.808,-54.197 49.808,-162.592c-0,-104.977 -16.608,-157.462 -49.808,-157.462c-32.717,-0 -49.068,52.485 -49.068,157.462m-95.945,-142.818c38.566,-31.73 86.904,-47.603 145.013,-47.603c58.104,0 106.567,15.999 145.38,47.97c38.819,31.987 58.23,79.464 58.23,142.451c0,63.969 -19.663,112.674 -58.959,146.11c-39.307,33.452 -87.519,50.171 -144.651,50.171c-57.616,-0 -105.827,-16.719 -144.645,-50.171c-38.819,-33.436 -58.225,-82.141 -58.225,-146.11c-0,-63.47 19.281,-111.073 57.857,-142.818" style="fill:#1e2f97;fill-rule:nonzero;"/><path d="M4135.05,194.084l160.392,0l0,239.493c0,37.112 16.844,55.663 50.538,55.663c13.662,-0 28.8,-2.93 45.408,-8.79c-0.494,-3.901 -0.735,-10.249 -0.735,-19.044l-0,-142.083c-0,-10.255 -0.73,-21.355 -2.195,-33.321c-1.465,-11.961 -3.298,-22.945 -5.493,-32.958c-2.199,-10.003 -4.52,-19.16 -6.962,-27.466c-2.446,-8.297 -4.389,-15.017 -5.859,-20.142c-1.46,-5.125 -2.195,-7.929 -2.195,-8.422l-0,-2.93l160.397,0l-0,248.283c-0,10.25 0.73,21.365 2.195,33.321c1.465,11.971 3.297,22.961 5.492,32.963c2.195,10.008 4.511,19.165 6.957,27.461c2.442,8.307 4.395,15.017 5.86,20.142c1.465,5.13 2.2,7.939 2.2,8.422l-0,2.93l-125.244,-0c-16.109,-26.364 -26.122,-47.844 -30.024,-64.452c-27.35,47.854 -66.168,71.777 -116.449,71.777c-35.652,-0 -64.819,-10.864 -87.523,-32.591c-22.704,-21.723 -34.056,-51.384 -34.056,-88.989l-0,-134.028c-0,-10.255 -0.73,-21.355 -2.2,-33.321c-1.46,-11.961 -3.292,-22.945 -5.492,-32.958c-2.195,-10.003 -4.521,-19.16 -6.957,-27.466c-2.447,-8.297 -4.39,-15.017 -5.86,-20.142c-1.465,-5.125 -2.195,-7.929 -2.195,-8.422l0,-2.93Z" style="fill:#1e2f97;fill-rule:nonzero;"/><path d="M4748.06,279.043l0,218.985c12.691,6.353 25.141,9.519 37.353,9.519c43.943,0 65.912,-43.208 65.912,-129.628c0,-73.725 -20.997,-110.595 -62.982,-110.595c-13.677,0 -27.098,3.912 -40.283,11.719m-158.197,424.055c1.465,-5.377 3.297,-12.208 5.492,-20.504c2.195,-8.311 4.511,-17.463 6.957,-27.466c2.442,-10.013 4.395,-21.003 5.86,-32.959c1.465,-11.971 2.2,-23.071 2.2,-33.326l-0,-269.516c-0,-10.255 -0.735,-21.355 -2.2,-33.326c-1.465,-11.961 -3.418,-22.946 -5.86,-32.959c-2.446,-10.003 -4.762,-19.155 -6.957,-27.466c-2.195,-8.296 -4.027,-15.012 -5.492,-20.141c-1.465,-5.125 -2.195,-7.929 -2.195,-8.423l0,-2.929l160.392,-0l0,52.002c11.226,-18.057 26.606,-31.972 46.143,-41.748c19.522,-9.761 40.026,-14.644 61.517,-14.644c40.525,-0 74.706,16.235 102.54,48.7c27.829,32.48 41.743,78.985 41.743,139.526c-0,63.475 -15.138,112.306 -45.408,146.473c-30.28,34.181 -65.182,51.267 -104.73,51.267c-41.018,0 -74.958,-16.351 -101.805,-49.068l0,62.252c0,10.255 0.735,21.355 2.195,33.326c1.47,11.956 3.413,22.946 5.86,32.959c2.436,10.003 4.762,19.155 6.962,27.466c2.195,8.296 4.027,15.012 5.487,20.141c1.47,5.125 2.2,7.929 2.2,8.417l0,2.93l-183.096,0l0,-2.93c0,-0.488 0.73,-3.176 2.195,-8.054" style="fill:#1e2f97;fill-rule:nonzero;"/></g></g></svg>