<?xml version="1.0" encoding="UTF-8" standalone="no"?><!DOCTYPE svg PUBLIC "-//W3C//DTD SVG 1.1//EN" "http://www.w3.org/Graphics/SVG/1.1/DTD/svg11.dtd"><svg width="100%" height="100%" viewBox="0 0 4290 5000" version="1.1" xmlns="http://www.w3.org/2000/svg" xmlns:xlink="http://www.w3.org/1999/xlink" xml:space="preserve" xmlns:serif="http://www.serif.com/" style="fill-rule:evenodd;clip-rule:evenodd;stroke-linejoin:round;stroke-miterlimit:2;"><rect id="Página-9" serif:id="Página 9" x="0" y="0" width="4289.63" height="5000" style="fill:none;"/><clipPath id="_clip1"><rect x="0" y="0" width="4289.63" height="5000"/></clipPath><g clip-path="url(#_clip1)"><g id="Capa-1" serif:id="Capa 1"><path d="M312.289,1228.57c-11.287,229.573 -10.312,704.519 131.093,1245.21c255.639,977.483 829.73,1710.68 1706.88,2180.4c876.852,-469.605 1448.78,-1202.61 1700.44,-2179.84c139.384,-541.167 138.022,-1016.45 125.612,-1245.8c-912.625,44.893 -1577.88,-503.698 -1837.96,-761.039c-257.388,257.868 -915.334,805.336 -1826.07,761.078m1837.98,3771.43l-69.835,-35.649c-1247.78,-636.882 -1742.23,-1669.92 -1937.3,-2424.4c-210.188,-812.931 -127.873,-1469.88 -124.274,-1497.45l19.772,-151.075l151.222,18.534c1081.06,132.433 1821.29,-756.155 1828.64,-765.151l118.398,-144.811l119.041,143.875c7.47,8.995 760.265,898.589 1842.07,766.087l150.501,-18.433l20.399,150.246c3.739,27.568 89.282,684.57 -117.686,1497.62c-192.104,754.661 -683.083,1787.94 -1931.11,2424.96l-69.836,35.649Z" style="fill:#fff;fill-rule:nonzero;"/><path d="M840.051,2943.52l-0,-837.316c503.458,-0 911.316,-407.843 911.316,-910.93l837.309,0c-0,965.29 -782.948,1748.25 -1748.62,1748.25" style="fill:#fff;fill-rule:nonzero;"/><path d="M3449.5,2056.49l-0,837.696c-8.098,-0.774 -16.195,-0.774 -24.293,-0.774c-503.458,-0 -911.316,407.843 -911.316,911.308l-837.309,0c0,-965.669 782.956,-1748.62 1748.62,-1748.62c8.098,0 16.195,0 24.293,0.395" style="fill:#fff;fill-rule:nonzero;"/></g></g></svg>