<?xml version="1.0" encoding="UTF-8" standalone="no"?><!DOCTYPE svg PUBLIC "-//W3C//DTD SVG 1.1//EN" "http://www.w3.org/Graphics/SVG/1.1/DTD/svg11.dtd"><svg width="100%" height="100%" viewBox="0 0 4424 692" version="1.1" xmlns="http://www.w3.org/2000/svg" xmlns:xlink="http://www.w3.org/1999/xlink" xml:space="preserve" xmlns:serif="http://www.serif.com/" style="fill-rule:evenodd;clip-rule:evenodd;stroke-linejoin:round;stroke-miterlimit:2;"><rect id="Página-5" serif:id="Página 5" x="0" y="0" width="4423.12" height="691.43" style="fill:none;"/><g id="Capa-1" serif:id="Capa 1"><path d="M867.494,654.212l0,34.708l-22.671,0l0,-34.987l-37.925,-62.979l24.071,-0l26.171,43.525l26.171,-43.525l22.25,-0l-38.067,63.258Z" style="fill:#383838;fill-rule:nonzero;"/><path d="M1001.98,667.296c4.662,-2.658 8.325,-6.366 10.983,-11.125c2.663,-4.762 3.992,-10.17 3.992,-16.237c-0,-6.063 -1.329,-11.471 -3.992,-16.233c-2.658,-4.759 -6.321,-8.467 -10.983,-11.125c-4.667,-2.659 -9.892,-3.992 -15.675,-3.992c-5.788,-0 -11.009,1.333 -15.675,3.992c-4.667,2.658 -8.325,6.366 -10.988,11.125c-2.658,4.762 -3.987,10.17 -3.987,16.233c-0,6.067 1.329,11.475 3.987,16.237c2.663,4.759 6.321,8.467 10.988,11.125c4.666,2.659 9.887,3.984 15.675,3.984c5.783,-0 11.008,-1.325 15.675,-3.984m-43.175,16.725c-8.167,-4.383 -14.554,-10.425 -19.171,-18.125c-4.621,-7.7 -6.929,-16.35 -6.929,-25.962c-0,-9.608 2.308,-18.263 6.929,-25.958c4.617,-7.7 11.004,-13.734 19.171,-18.125c8.162,-4.384 17.329,-6.575 27.5,-6.575c10.166,-0 19.312,2.191 27.429,6.575c8.117,4.391 14.508,10.425 19.175,18.125c4.662,7.695 6.996,16.35 6.996,25.958c-0,9.612 -2.334,18.262 -6.996,25.962c-4.667,7.7 -11.058,13.742 -19.175,18.125c-8.117,4.384 -17.263,6.575 -27.429,6.575c-10.171,0 -19.338,-2.191 -27.5,-6.575" style="fill:#383838;fill-rule:nonzero;"/><path d="M1095.82,678.981c-7.792,-7.742 -11.684,-18.796 -11.684,-33.167l0,-54.863l22.671,0l0,54.021c0,17.546 7.275,26.309 21.829,26.309c7.092,-0 12.505,-2.121 16.234,-6.367c3.733,-4.242 5.6,-10.892 5.6,-19.942l-0,-54.021l22.391,0l0,54.863c0,14.371 -3.895,25.425 -11.687,33.167c-7.792,7.741 -18.679,11.616 -32.675,11.616c-13.996,0 -24.892,-3.875 -32.679,-11.616" style="fill:#383838;fill-rule:nonzero;"/><path d="M1279.92,613.834c-3.546,-2.934 -8.725,-4.405 -15.534,-4.405l-18.475,0l0,34.146l18.475,0c6.809,0 11.988,-1.491 15.534,-4.479c3.541,-2.983 5.316,-7.183 5.316,-12.596c0,-5.504 -1.775,-9.729 -5.316,-12.666m5.737,75.087l-18.896,-27.292l-20.85,0l0,27.292l-22.671,0l0,-97.967l42.405,0c8.675,0 16.208,1.45 22.6,4.338c6.391,2.892 11.312,6.996 14.766,12.317c3.45,5.316 5.179,11.616 5.179,18.891c0,7.279 -1.75,13.55 -5.25,18.825c-3.5,5.271 -8.466,9.309 -14.904,12.104l21.971,31.492l-24.35,0Z" style="fill:#383838;fill-rule:nonzero;"/><path d="M1431.41,687.449c-7.233,-2.1 -13.038,-4.829 -17.425,-8.187l7.7,-17.075c4.196,3.079 9.187,5.554 14.971,7.417c5.787,1.87 11.571,2.8 17.354,2.8c6.437,-0 11.196,-0.955 14.275,-2.867c3.079,-1.913 4.621,-4.454 4.621,-7.629c-0,-2.329 -0.913,-4.267 -2.729,-5.809c-1.821,-1.537 -4.155,-2.775 -7,-3.708c-2.846,-0.929 -6.696,-1.958 -11.546,-3.075c-7.463,-1.775 -13.575,-3.546 -18.334,-5.325c-4.758,-1.767 -8.837,-4.612 -12.241,-8.537c-3.409,-3.913 -5.109,-9.138 -5.109,-15.671c0,-5.688 1.538,-10.846 4.617,-15.463c3.079,-4.616 7.721,-8.283 13.925,-10.987c6.204,-2.704 13.783,-4.054 22.742,-4.054c6.25,-0 12.362,0.741 18.333,2.237c5.971,1.488 11.196,3.633 15.675,6.438l-7,17.212c-9.05,-5.129 -18.1,-7.7 -27.15,-7.7c-6.346,0 -11.033,1.029 -14.062,3.083c-3.034,2.05 -4.55,4.755 -4.55,8.113c-0,3.358 1.75,5.858 5.25,7.487c3.5,1.638 8.837,3.246 16.02,4.83c7.467,1.775 13.575,3.55 18.338,5.32c4.758,1.771 8.837,4.571 12.242,8.396c3.404,3.825 5.108,9.004 5.108,15.534c-0,5.6 -1.563,10.708 -4.688,15.325c-3.125,4.616 -7.816,8.279 -14.062,10.983c-6.254,2.708 -13.858,4.058 -22.813,4.058c-7.745,0 -15.233,-1.05 -22.462,-3.146" style="fill:#383838;fill-rule:nonzero;"/><path d="M1557.85,609.429l-31.35,-0l-0,-18.475l85.37,-0l0,18.475l-31.35,-0l0,79.492l-22.67,-0l-0,-79.492Z" style="fill:#383838;fill-rule:nonzero;"/><path d="M1708.72,613.834c-3.546,-2.934 -8.725,-4.405 -15.534,-4.405l-18.475,0l0,34.146l18.475,0c6.809,0 11.988,-1.491 15.534,-4.479c3.541,-2.983 5.316,-7.183 5.316,-12.596c0,-5.504 -1.775,-9.729 -5.316,-12.666m5.737,75.087l-18.896,-27.292l-20.85,0l0,27.292l-22.67,0l-0,-97.967l42.404,0c8.675,0 16.208,1.45 22.6,4.338c6.391,2.892 11.312,6.996 14.766,12.317c3.45,5.316 5.18,11.616 5.18,18.891c-0,7.279 -1.75,13.55 -5.25,18.825c-3.5,5.271 -8.467,9.309 -14.905,12.104l21.971,31.492l-24.35,0Z" style="fill:#383838;fill-rule:nonzero;"/><path d="M1840.27,650.71l-15.534,-37.504l-15.533,37.504l31.067,0Zm7.137,17.213l-45.483,-0l-8.675,20.996l-23.234,-0l43.663,-97.967l22.392,-0l43.804,97.967l-23.788,-0l-8.679,-20.996Z" style="fill:#383838;fill-rule:nonzero;"/><path d="M1933.47,609.429l-31.35,-0l0,-18.475l85.371,-0l0,18.475l-31.35,-0l0,79.492l-22.671,-0l0,-79.492Z" style="fill:#383838;fill-rule:nonzero;"/><path d="M2103.51,670.724l-0,18.196l-75.85,0l-0,-97.966l74.033,-0l-0,18.195l-51.504,0l-0,21.271l45.483,0l0,17.634l-45.483,-0l-0,22.67l53.321,0Z" style="fill:#383838;fill-rule:nonzero;"/><path d="M2215.47,638.395l20.713,-0l-0,39.746c-5.317,4.012 -11.475,7.095 -18.475,9.237c-6.996,2.146 -14.042,3.217 -21.129,3.217c-10.171,-0 -19.313,-2.171 -27.434,-6.504c-8.116,-4.342 -14.483,-10.359 -19.1,-18.059c-4.62,-7.691 -6.929,-16.391 -6.929,-26.1c0,-9.7 2.309,-18.4 6.929,-26.1c4.617,-7.691 11.03,-13.708 19.242,-18.05c8.208,-4.341 17.446,-6.504 27.708,-6.504c8.584,0 16.375,1.442 23.371,4.333c7,2.896 12.875,7.092 17.634,12.596l-14.555,13.438c-6.995,-7.371 -15.441,-11.059 -25.329,-11.059c-6.25,0 -11.804,1.305 -16.654,3.921c-4.85,2.613 -8.629,6.296 -11.337,11.059c-2.705,4.754 -4.055,10.212 -4.055,16.366c0,6.067 1.35,11.479 4.055,16.238c2.708,4.758 6.462,8.466 11.266,11.125c4.804,2.658 10.288,3.987 16.446,3.987c6.529,0 12.408,-1.396 17.633,-4.196l0,-28.691Z" style="fill:#383838;fill-rule:nonzero;"/><rect x="2285.16" y="590.954" width="22.671" height="97.967" style="fill:#383838;"/><path d="M2378.85,684.091c-8.071,-4.342 -14.417,-10.359 -19.033,-18.055c-4.617,-7.695 -6.925,-16.395 -6.925,-26.104c-0,-9.7 2.308,-18.4 6.925,-26.1c4.616,-7.691 10.962,-13.708 19.033,-18.05c8.071,-4.341 17.146,-6.504 27.221,-6.504c8.487,0 16.162,1.488 23.021,4.475c6.858,2.988 12.616,7.275 17.283,12.875l-14.554,13.433c-6.625,-7.65 -14.833,-11.475 -24.633,-11.475c-6.063,0 -11.475,1.33 -16.234,3.988c-4.758,2.658 -8.466,6.371 -11.125,11.129c-2.658,4.758 -3.987,10.171 -3.987,16.229c-0,6.067 1.329,11.479 3.987,16.238c2.659,4.758 6.367,8.466 11.125,11.125c4.759,2.662 10.171,3.987 16.234,3.987c9.8,0 18.008,-3.866 24.633,-11.616l14.554,13.437c-4.667,5.692 -10.45,10.029 -17.354,13.013c-6.904,2.987 -14.604,4.479 -23.092,4.479c-9.983,-0 -19.008,-2.171 -27.079,-6.504" style="fill:#383838;fill-rule:nonzero;"/><path d="M2613.89,639.026c3.542,-2.937 5.317,-7.112 5.317,-12.529c-0,-5.504 -1.775,-9.725 -5.317,-12.663c-3.546,-2.937 -8.725,-4.404 -15.533,-4.404l-18.475,0l-0,34.004l18.475,0c6.808,0 11.987,-1.466 15.533,-4.408m8.325,-43.733c6.392,2.891 11.313,6.996 14.767,12.316c3.45,5.317 5.179,11.613 5.179,18.888c0,7.187 -1.729,13.462 -5.179,18.829c-3.454,5.363 -8.375,9.467 -14.767,12.313c-6.391,2.845 -13.925,4.266 -22.6,4.266l-19.733,0l-0,27.013l-22.671,-0l0,-97.963l42.404,0c8.675,0 16.209,1.45 22.6,4.338" style="fill:#383838;fill-rule:nonzero;"/><path d="M2738.72,650.71l-15.533,-37.504l-15.534,37.504l31.067,0Zm7.137,17.213l-45.483,-0l-8.675,20.996l-23.233,-0l43.662,-97.967l22.392,-0l43.804,97.967l-23.792,-0l-8.675,-20.996Z" style="fill:#383838;fill-rule:nonzero;"/><path d="M2873.21,613.834c-3.546,-2.934 -8.725,-4.405 -15.533,-4.405l-18.475,0l-0,34.146l18.475,0c6.808,0 11.987,-1.491 15.533,-4.479c3.546,-2.983 5.317,-7.183 5.317,-12.596c-0,-5.504 -1.771,-9.729 -5.317,-12.666m5.738,75.087l-18.892,-27.292l-20.854,0l-0,27.292l-22.671,0l0,-97.967l42.404,0c8.675,0 16.209,1.45 22.6,4.338c6.392,2.892 11.313,6.996 14.767,12.317c3.45,5.316 5.179,11.616 5.179,18.891c0,7.279 -1.75,13.55 -5.25,18.825c-3.5,5.271 -8.467,9.309 -14.904,12.104l21.971,31.492l-24.35,0Z" style="fill:#383838;fill-rule:nonzero;"/><path d="M2966.28,609.429l-31.35,-0l0,-18.475l85.371,-0l0,18.475l-31.35,-0l0,79.492l-22.671,-0l0,-79.492Z" style="fill:#383838;fill-rule:nonzero;"/><path d="M3150.31,590.954l0,97.966l-18.612,0l-48.842,-59.483l0,59.483l-22.392,0l0,-97.966l18.755,-0l48.7,59.479l-0,-59.479l22.391,-0Z" style="fill:#383838;fill-rule:nonzero;"/><path d="M3277.38,670.724l0,18.196l-75.85,0l0,-97.966l74.034,-0l-0,18.195l-51.505,0l0,21.271l45.484,0l-0,17.634l-45.484,-0l0,22.67l53.321,0Z" style="fill:#383838;fill-rule:nonzero;"/><path d="M3380.1,613.834c-3.545,-2.934 -8.725,-4.405 -15.533,-4.405l-18.475,0l0,34.146l18.475,0c6.808,0 11.988,-1.491 15.533,-4.479c3.542,-2.983 5.317,-7.183 5.317,-12.596c0,-5.504 -1.775,-9.729 -5.317,-12.666m5.738,75.087l-18.896,-27.292l-20.85,0l0,27.292l-22.671,0l0,-97.967l42.404,0c8.675,0 16.209,1.45 22.6,4.338c6.392,2.892 11.313,6.996 14.767,12.317c3.45,5.316 5.179,11.616 5.179,18.891c0,7.279 -1.75,13.55 -5.25,18.825c-3.5,5.271 -8.466,9.309 -14.904,12.104l21.971,31.492l-24.35,0Z" style="fill:#383838;fill-rule:nonzero;"/><path d="M806.897,410.931l-0,-3.179c-0,-0.346 1.145,-3.35 3.441,-9.004c2.296,-5.642 5.034,-12.971 8.209,-21.975c3.179,-9.004 6.358,-18.888 9.537,-29.659c3.175,-10.766 5.908,-22.683 8.208,-35.75c2.292,-13.058 3.442,-25.237 3.442,-36.541l0,-154.646c0,-7.417 -0.796,-15.442 -2.383,-24.1c-1.588,-8.646 -3.625,-16.588 -6.092,-23.829c-2.475,-7.234 -4.946,-13.854 -7.412,-19.863c-2.475,-6 -4.505,-10.858 -6.092,-14.562c-1.588,-3.709 -2.383,-5.734 -2.383,-6.092l-0,-2.121l127.108,0l98.504,237.267l85.796,-237.267l122.342,0l-0,2.121c-0,0.358 -0.53,2.383 -1.588,6.092c-1.062,3.704 -2.475,8.562 -4.237,14.562c-1.775,6.009 -3.442,12.629 -5.034,19.863c-1.587,7.241 -2.912,15.183 -3.971,23.829c-1.058,8.658 -1.591,16.683 -1.591,24.1l-0,200.192c-0,7.412 0.533,15.45 1.591,24.095c1.059,8.655 2.384,16.6 3.971,23.834c1.592,7.241 3.259,13.858 5.034,19.858c1.762,6.008 3.175,10.858 4.237,14.567c1.058,3.708 1.588,5.741 1.588,6.091l-0,2.117l-138.759,0l0,-2.117c0,-0.35 0.529,-2.383 1.588,-6.091c1.062,-3.709 2.466,-8.559 4.237,-14.567c1.763,-6 3.446,-12.617 5.034,-19.858c1.587,-7.234 2.912,-15.179 3.97,-23.834c1.059,-8.645 1.588,-16.683 1.588,-24.095l-0,-211.313l-108.567,301.875l-29.129,0l-121.812,-301.875c-0.355,2.471 -0.53,6.179 -0.53,11.121l0,154.646c0,11.304 1.146,23.483 3.446,36.541c2.292,13.067 5.029,24.984 8.204,35.75c3.18,10.771 6.359,20.655 9.534,29.659c3.179,9.004 5.912,16.333 8.212,21.975c2.292,5.654 3.442,8.658 3.442,9.004l-0,3.179l-92.683,0Z" style="fill:#797ef6;fill-rule:nonzero;"/><path d="M1386.29,238.28c-0,4.592 0.345,11.475 1.062,20.654l67.258,-21.183c0,-50.487 -11.304,-75.733 -33.895,-75.733c-22.955,-0 -34.425,24.012 -34.425,72.025l-0,4.237Zm-68.317,-64.083c26.125,-24.363 60.904,-36.542 104.329,-36.542c24.008,0 44.838,4.059 62.496,12.179c17.65,8.125 31.154,18.984 40.517,32.571c9.35,13.596 16.154,27.896 20.387,42.9c4.238,15.009 6.354,30.809 6.354,47.4l-163.116,0c7.058,53.671 32.654,80.5 76.791,80.5c24.363,0 50.313,-7.762 77.854,-23.304l2.117,1.592c-6.354,20.833 -20.654,40.341 -42.896,58.521c-22.246,18.187 -49.966,27.27 -83.15,27.27c-16.946,0 -33.546,-2.737 -49.783,-8.208c-16.242,-5.467 -31.338,-13.679 -45.279,-24.625c-13.954,-10.937 -25.159,-25.687 -33.634,-44.225c-8.475,-18.533 -12.708,-39.625 -12.708,-63.287c0,-43.771 13.238,-78.025 39.721,-102.742" style="fill:#797ef6;fill-rule:nonzero;"/><path d="M1739.01,367.502c8.82,0 18.708,-2.646 29.658,-7.941c-1.058,-5.3 -1.592,-11.125 -1.592,-17.48l0,-139.287c-9.533,-5.996 -19.591,-9.004 -30.183,-9.004c-30.375,-0 -45.55,26.662 -45.55,79.975c-0,62.491 15.887,93.737 47.667,93.737m-124.988,-194.896c20.125,-23.304 44.833,-34.954 74.146,-34.954c15.887,0 30.979,3.625 45.279,10.859c14.3,7.241 25.504,17.741 33.629,31.512l0,-65.142c0,-7.416 -0.883,-15.358 -2.646,-23.833c-1.77,-8.475 -3.891,-16.237 -6.354,-23.304c-2.475,-7.058 -4.95,-13.413 -7.416,-19.063c-2.475,-5.645 -4.592,-10.237 -6.355,-13.77l-3.179,-5.83l0,-2.116l125.517,-13.242l-0,306.646c-0,7.412 0.529,15.45 1.592,24.096c1.058,8.654 2.383,16.6 3.97,23.833c1.592,7.242 3.263,13.858 5.034,19.858c1.758,6.009 3.175,10.859 4.233,14.567c1.058,3.708 1.592,5.742 1.592,6.092l-0,2.116l-90.034,0c-1.062,-1.762 -4.329,-6.966 -9.8,-15.62c-5.479,-8.65 -9.266,-15.975 -11.387,-21.98c-19.421,28.95 -45.9,43.425 -79.438,43.425c-28.6,0 -53.85,-12.354 -75.733,-37.07c-21.896,-24.713 -32.837,-60.021 -32.837,-105.921c-0,-43.779 10.062,-77.5 30.187,-101.159" style="fill:#797ef6;fill-rule:nonzero;"/><path d="M1935.49,17.433c11.65,-11.296 25.767,-16.95 42.371,-16.95c16.587,-0 30.716,5.746 42.366,17.212c11.65,11.479 17.475,25.342 17.475,41.575c0,16.246 -5.825,30.017 -17.475,41.309c-12.008,11.654 -26.133,17.479 -42.366,17.479c-16.246,-0 -30.284,-5.734 -42.109,-17.213c-11.829,-11.471 -17.737,-25.329 -17.737,-41.575c-0,-16.233 5.825,-30.187 17.475,-41.837m-17.475,385.025c1.058,-3.525 2.462,-8.292 4.233,-14.3c1.763,-6 3.446,-12.621 5.034,-19.859c1.587,-7.233 2.912,-15.179 3.97,-23.833c1.059,-8.646 1.588,-16.683 1.588,-24.096l-0,-88.975c-0,-7.416 -0.529,-15.441 -1.588,-24.1c-1.058,-8.646 -2.383,-16.591 -3.97,-23.829c-1.588,-7.233 -3.271,-13.854 -5.034,-19.862c-1.771,-6 -3.175,-10.859 -4.233,-14.563c-1.063,-3.708 -1.592,-5.733 -1.592,-6.092l0,-2.12l115.984,-0l-0,179.541c-0,7.413 0.529,15.45 1.591,24.096c1.059,8.654 2.384,16.6 3.971,23.833c1.592,7.238 3.258,13.859 5.033,19.859c1.759,6.008 3.175,10.858 4.238,14.562c1.054,3.713 1.587,5.746 1.587,6.092l0,2.121l-132.404,-0l0,-2.121c0,-0.346 0.529,-2.467 1.592,-6.354" style="fill:#797ef6;fill-rule:nonzero;"/><path d="M2076.36,408.813c0,-0.346 0.529,-2.383 1.588,-6.092c1.062,-3.704 2.383,-8.558 3.975,-14.562c1.587,-6 3.258,-12.621 5.029,-19.858c1.762,-7.234 3.179,-15.18 4.237,-23.838c1.059,-8.646 1.588,-16.679 1.588,-24.096l-0,-88.971c-0,-7.416 -0.529,-15.441 -1.588,-24.1c-1.058,-8.65 -2.475,-16.591 -4.237,-23.829c-1.771,-7.233 -3.442,-13.854 -5.029,-19.862c-1.592,-6 -2.913,-10.859 -3.975,-14.567c-1.059,-3.704 -1.588,-5.733 -1.588,-6.087l0,-2.121l115.983,-0l0,45.016c7.763,-13.412 18.888,-24.8 33.367,-34.158c14.475,-9.35 31.596,-14.033 51.371,-14.033c25.425,-0 46.425,7.862 63.025,23.566c16.592,15.713 24.892,37.163 24.892,64.346l-0,94.8c-0,7.417 0.529,15.45 1.587,24.096c1.058,8.658 2.467,16.604 4.238,23.838c1.762,7.237 3.441,13.858 5.029,19.858c1.591,6.004 2.912,10.858 3.975,14.562c1.058,3.709 1.587,5.746 1.587,6.092l0,2.117l-132.4,-0l0,-2.117c0,-0.346 0.529,-2.383 1.588,-6.092c1.058,-3.704 2.383,-8.558 3.971,-14.562c1.591,-6 3.262,-12.621 5.033,-19.858c1.762,-7.234 3.175,-15.18 4.237,-23.838c1.059,-8.646 1.588,-16.679 1.588,-24.096l-0,-80.5c-0,-27.183 -12.713,-41.129 -38.133,-41.837l-2.117,-0c-9.892,-0 -20.838,2.646 -32.838,7.941l0,114.396c0,7.417 0.534,15.45 1.588,24.096c1.062,8.658 2.467,16.604 4.237,23.838c1.763,7.237 3.442,13.858 5.034,19.858c1.587,6.004 2.912,10.858 3.971,14.562c1.062,3.709 1.591,5.746 1.591,6.092l0,2.117l-132.404,-0l0,-2.117Z" style="fill:#797ef6;fill-rule:nonzero;"/><path d="M2520.17,348.437c6.704,9.534 16.421,14.3 29.129,14.3c7.417,0 14.117,-2.291 20.125,-6.883c-1.062,-6 -1.587,-12.183 -1.587,-18.538l-0,-66.733c-4.596,-1.404 -9.888,-2.117 -15.888,-2.117c-28.254,0 -42.371,14.83 -42.371,44.488c0,14.479 3.525,26.308 10.592,35.483m-113.867,-19.596c0,-26.125 9.884,-47.308 29.659,-63.554c19.771,-16.233 43.429,-24.362 70.966,-24.362c21.534,-0 41.842,3.891 60.909,11.654l-0,-29.129c-0,-11.296 -0.092,-19.596 -0.267,-24.892c-0.179,-5.296 -0.621,-11.121 -1.325,-17.479c-0.708,-6.354 -1.85,-10.767 -3.442,-13.238c-1.587,-2.466 -3.8,-3.708 -6.62,-3.708c-8.83,0 -23.567,6.271 -44.221,18.8c-20.654,12.538 -39.109,24.983 -55.342,37.342l-24.362,19.062l-2.65,0l-0,-83.675c52.604,-12 96.916,-18.008 132.933,-18.008c37.071,-0 63.817,8.562 80.233,25.687c16.417,17.13 24.629,39.809 24.629,68.055l0,91.091c0,18.363 1.671,29.921 5.03,34.688c3.35,4.766 7.15,7.15 11.387,7.15c4.583,-0 10.238,-1.763 16.946,-5.296l1.587,1.592c-1.054,16.241 -7.329,29.575 -18.8,39.983c-11.475,10.412 -26.925,15.625 -46.337,15.625c-33.896,-0 -55.438,-15.358 -64.613,-46.079c-6.712,12.366 -16.866,23.129 -30.454,32.308c-13.596,9.175 -30.279,13.771 -50.046,13.771c-26.837,-0 -47.85,-8.825 -63.025,-26.479c-15.187,-17.654 -22.775,-37.954 -22.775,-60.909" style="fill:#797ef6;fill-rule:nonzero;"/><path d="M2894.6,80.984c37.775,-37.775 85.266,-56.666 142.466,-56.666c42.013,-0 89.146,9.887 141.405,29.658l-0,113.863l-4.767,-0c-0,-0.346 -3.096,-5.03 -9.271,-14.034c-6.179,-9.004 -11.737,-16.858 -16.679,-23.566c-4.95,-6.705 -12.008,-15.359 -21.183,-25.95c-9.188,-10.596 -17.838,-19.334 -25.955,-26.217c-8.125,-6.883 -17.475,-12.975 -28.066,-18.271c-10.592,-5.296 -20.842,-7.946 -30.717,-7.946l-1.062,0c-25.421,0 -45.546,15.279 -60.375,45.813c-14.83,30.541 -22.246,71.412 -22.246,122.604c-0,51.2 7.679,92.15 23.037,122.867c15.363,30.72 37.342,46.262 65.938,46.608c13.062,-0 26.658,-2.821 40.783,-8.475l0,-77.321c0,-7.417 -1.417,-15.442 -4.237,-24.1c-2.834,-8.646 -6.184,-16.592 -10.063,-23.829c-3.892,-7.233 -7.862,-13.854 -11.917,-19.863c-4.062,-5.995 -7.504,-10.854 -10.329,-14.566c-2.829,-3.704 -4.237,-5.734 -4.237,-6.088l-0,-2.116l155.179,-0l-0,2.116c-0,0.354 -0.267,2.384 -0.796,6.088c-0.529,3.712 -1.242,8.571 -2.117,14.566c-0.887,6.009 -1.775,12.63 -2.65,19.863c-0.883,7.237 -1.591,15.183 -2.116,23.829c-0.529,8.658 -0.796,16.683 -0.796,24.1l-0,70.967c-19.067,9.887 -44.313,19.329 -75.733,28.333c-31.43,9.004 -61.792,13.504 -91.096,13.504c-54.729,0 -100.013,-18.271 -135.842,-54.812c-35.837,-36.542 -53.754,-83.763 -53.754,-141.671c-0,-54.721 19.062,-101.154 57.196,-139.288" style="fill:#1e2f97;fill-rule:nonzero;"/><path d="M3231.43,142.949l0,-2.117l115.984,-0l-0,57.725c19.066,-43.071 46.075,-64.613 81.033,-64.613c10.592,0 21.883,1.946 33.892,5.83l-15.888,104.862l-2.646,0c-22.6,-26.125 -45.2,-39.192 -67.791,-39.192c-9.534,0 -19.067,2.3 -28.6,6.884l-0,108.041c-0,7.413 0.533,15.45 1.587,24.096c1.063,8.654 2.467,16.6 4.238,23.834c1.762,7.241 3.441,13.858 5.033,19.858c1.588,6.008 2.913,10.858 3.971,14.567c1.062,3.708 1.592,5.741 1.592,6.087l-0,2.121l-132.405,-0l0,-2.121c0,-0.346 0.53,-2.379 1.588,-6.087c1.062,-3.709 2.383,-8.559 3.975,-14.567c1.587,-6 3.258,-12.617 5.029,-19.858c1.763,-7.234 3.179,-15.18 4.238,-23.834c1.058,-8.646 1.591,-16.683 1.591,-24.096l0,-88.975c0,-7.416 -0.533,-15.441 -1.591,-24.095c-1.059,-8.65 -2.475,-16.592 -4.238,-23.834c-1.771,-7.233 -3.442,-13.854 -5.029,-19.862c-1.592,-6 -2.913,-10.859 -3.975,-14.563c-1.058,-3.708 -1.588,-5.733 -1.588,-6.091" style="fill:#1e2f97;fill-rule:nonzero;"/><path d="M3590.5,275.352c0,78.383 11.825,117.571 35.484,117.571c24.008,-0 36.012,-39.188 36.012,-117.571c0,-75.908 -12.004,-113.867 -36.012,-113.867c-23.659,0 -35.484,37.959 -35.484,113.867m-69.379,-103.275c27.888,-22.946 62.842,-34.421 104.863,-34.421c42.012,0 77.058,11.567 105.125,34.688c28.07,23.129 42.108,57.462 42.108,103.008c-0,46.258 -14.217,81.479 -42.633,105.658c-28.425,24.188 -63.288,36.275 -104.6,36.275c-41.667,0 -76.53,-12.087 -104.596,-36.275c-28.071,-24.179 -42.104,-59.4 -42.104,-105.658c-0,-45.896 13.941,-80.317 41.837,-103.275" style="fill:#1e2f97;fill-rule:nonzero;"/><path d="M3797.04,140.83l115.983,0l0,173.184c0,26.837 12.179,40.25 36.542,40.25c9.883,-0 20.829,-2.121 32.837,-6.359c-0.358,-2.821 -0.529,-7.412 -0.529,-13.766l0,-102.742c0,-7.417 -0.529,-15.446 -1.591,-24.1c-1.059,-8.65 -2.38,-16.592 -3.971,-23.833c-1.588,-7.23 -3.267,-13.855 -5.034,-19.859c-1.766,-6 -3.175,-10.858 -4.233,-14.566c-1.058,-3.705 -1.592,-5.734 -1.592,-6.092l0,-2.117l115.988,0l-0,179.538c-0,7.412 0.529,15.45 1.587,24.096c1.059,8.658 2.384,16.604 3.971,23.833c1.592,7.242 3.263,13.862 5.034,19.862c1.762,6.005 3.179,10.855 4.237,14.563c1.058,3.708 1.588,5.742 1.588,6.092l-0,2.116l-90.563,0c-11.65,-19.062 -18.892,-34.596 -21.712,-46.604c-19.78,34.604 -47.846,51.904 -84.209,51.904c-25.779,0 -46.871,-7.854 -63.287,-23.571c-16.421,-15.704 -24.629,-37.154 -24.629,-64.345l-0,-96.917c-0,-7.417 -0.53,-15.446 -1.588,-24.1c-1.058,-8.65 -2.383,-16.592 -3.975,-23.833c-1.587,-7.23 -3.267,-13.855 -5.029,-19.859c-1.771,-6 -3.175,-10.858 -4.238,-14.566c-1.058,-3.705 -1.587,-5.734 -1.587,-6.092l-0,-2.117Z" style="fill:#1e2f97;fill-rule:nonzero;"/><path d="M4240.32,202.266l0,158.354c9.175,4.592 18.179,6.884 27.013,6.884c31.775,-0 47.662,-31.246 47.662,-93.742c0,-53.308 -15.183,-79.971 -45.546,-79.971c-9.887,0 -19.595,2.829 -29.129,8.475m-114.396,306.642c1.059,-3.888 2.384,-8.829 3.971,-14.829c1.592,-6.009 3.263,-12.625 5.034,-19.859c1.762,-7.241 3.179,-15.187 4.237,-23.833c1.058,-8.654 1.588,-16.683 1.588,-24.096l-0,-194.896c-0,-7.416 -0.53,-15.441 -1.588,-24.1c-1.058,-8.646 -2.475,-16.591 -4.237,-23.829c-1.771,-7.233 -3.442,-13.854 -5.034,-19.862c-1.587,-6 -2.912,-10.859 -3.971,-14.563c-1.058,-3.708 -1.587,-5.733 -1.587,-6.092l-0,-2.12l115.983,-0l0,37.604c8.117,-13.059 19.242,-23.121 33.367,-30.188c14.117,-7.058 28.946,-10.591 44.487,-10.591c29.3,-0 54.021,11.741 74.146,35.216c20.125,23.488 30.184,57.117 30.184,100.892c-0,45.9 -10.946,81.212 -32.834,105.921c-21.896,24.716 -47.137,37.075 -75.733,37.075c-29.658,-0 -54.204,-11.825 -73.617,-35.488l0,45.021c0,7.413 0.529,15.442 1.588,24.096c1.062,8.646 2.466,16.592 4.237,23.833c1.763,7.234 3.442,13.85 5.034,19.859c1.587,6 2.912,10.858 3.97,14.566c1.059,3.704 1.592,5.734 1.592,6.088l0,2.121l-132.404,-0l-0,-2.121c-0,-0.354 0.529,-2.296 1.587,-5.825" style="fill:#1e2f97;fill-rule:nonzero;"/><path d="M43.371,169.874c-1.558,31.696 -1.425,97.275 18.1,171.925c35.296,134.963 114.563,236.196 235.671,301.05c121.067,-64.841 200.033,-166.045 234.779,-300.97c19.246,-74.721 19.059,-140.342 17.342,-172.009c-126.004,6.196 -217.858,-69.546 -253.767,-105.079c-35.537,35.604 -126.379,111.192 -252.125,105.083m253.771,520.721l-9.642,-4.921c-172.283,-87.933 -240.554,-230.566 -267.483,-334.737c-29.021,-112.242 -17.658,-202.946 -17.158,-206.754l2.729,-20.859l20.879,2.559c149.263,18.287 251.467,-104.4 252.479,-105.642l16.346,-19.996l16.438,19.867c1.033,1.242 104.97,124.067 254.337,105.771l20.779,-2.546l2.817,20.746c0.517,3.808 12.325,94.521 -16.25,206.775c-26.525,104.2 -94.313,246.862 -266.629,334.816l-9.642,4.921Z" style="fill:#7dd6f6;fill-rule:nonzero;"/><path d="M116.24,406.658l-0,-115.608c69.512,-0 125.825,-56.313 125.825,-125.771l115.608,-0c-0,133.275 -108.1,241.379 -241.433,241.379" style="fill:#797ef6;fill-rule:nonzero;"/><path d="M476.527,284.186l0,115.658c-1.117,-0.104 -2.237,-0.104 -3.354,-0.104c-69.513,-0 -125.825,56.312 -125.825,125.825l-115.608,-0c-0,-133.329 108.104,-241.434 241.433,-241.434c1.117,0 2.237,0 3.354,0.055" style="fill:#1e2f97;fill-rule:nonzero;"/></g></svg>