<?xml version="1.0" encoding="UTF-8" standalone="no"?><!DOCTYPE svg PUBLIC "-//W3C//DTD SVG 1.1//EN" "http://www.w3.org/Graphics/SVG/1.1/DTD/svg11.dtd"><svg width="100%" height="100%" viewBox="0 0 4970 4970" version="1.1" xmlns="http://www.w3.org/2000/svg" xmlns:xlink="http://www.w3.org/1999/xlink" xml:space="preserve" xmlns:serif="http://www.serif.com/" style="fill-rule:evenodd;clip-rule:evenodd;stroke-linejoin:round;stroke-miterlimit:2;"><rect id="mission" x="0" y="0" width="4969.66" height="4969.66" style="fill:none;"/><g><path d="M3626.26,1020.82l-1736.61,1736.54c-201.056,266.828 145.314,481.44 305.381,327.56l1752.6,-1745.95l338.963,-8.474l678.533,-685.645l-576.76,-68.66l-63.064,-576.19l-692.261,688.152l-6.779,332.667Z" style="fill:#fff;"/><path d="M3123.4,2511.11c58.407,149.825 84.836,313.826 72.694,482.979c-40.82,568.704 -510.82,1021.69 -1093.74,1046.83c-321.427,13.862 -634.827,-105.21 -864.659,-332.444c-243.446,-240.694 -364.268,-574.254 -329.693,-913.699c38.965,-382.543 272.583,-717.185 616.286,-893.58c0.172,-0.088 29.781,-14.669 70.203,-30.813c89.108,-35.588 164.202,-52.669 209.134,-61.389c20.187,-3.918 45.282,-7.422 49.234,-7.973c90.456,-12.628 156.965,-10.852 168.904,-11.182c17.462,-0.484 29.754,-0.45 32.839,-0.459c60.19,0.014 220.632,2.194 411.589,74.322l-349.268,349.268c-18.224,-1.605 -36.658,-2.548 -55.279,-2.804c-0.571,-0.008 -0.573,-0.006 -7.042,-0.064l-0.162,0c-3.06,0.015 -19.755,0.105 -23.235,0.407c-65.276,5.679 -111.505,17.916 -142.411,26.475c-90.773,25.14 -150.382,61.163 -159.633,65.855c-245.988,124.747 -402.263,382.509 -378.222,667.386c30.359,359.764 346.489,643.613 729.066,631.655c255.938,-7.999 465.908,-145.155 582.723,-329.282c80.472,-126.842 112.986,-269.08 104.775,-405.594l355.897,-355.897Z" style="fill:#fff;"/><path d="M3799.81,1834.7c212.757,341.181 327.008,747.761 307.185,1178.34c-48.727,1058.39 -901.989,1912.03 -1968.17,1954.97c-306.679,12.354 -543.793,-47.545 -648.683,-77.595c-883.497,-253.115 -1518.66,-1079.8 -1489.16,-2042.34c23.324,-760.849 460.912,-1421.99 1100.17,-1759.09c0.236,-0.125 46.567,-24.256 110.237,-51.942c160.174,-69.649 299.13,-105.69 393.362,-125.575c37.503,-7.914 78.12,-14.472 84.94,-15.573c161.185,-26.025 281.579,-25.405 309.855,-26.212c31.128,-0.889 54.634,-0.834 59.228,-0.845c157.089,0.119 588.795,12.493 1050.85,288.599c13.086,7.82 26.073,15.778 38.961,23.874l-322.157,322.157c-226.682,-124.328 -487.101,-195.812 -765.051,-196.811c-1.267,-0.004 -2.523,-0.012 -3.767,-0.023c-1.336,0.012 -2.686,0.02 -4.049,0.024c-34.645,0.11 -47.715,0.9 -51.857,1.151c-145.117,8.775 -253.773,34.815 -313.74,50.274c-200.364,51.653 -335.057,128.607 -370.531,147.272c-532.74,280.312 -885.63,852.232 -850.618,1498.74c44.62,823.914 716.761,1483.74 1548.08,1507.28c813.841,23.049 1492.38,-561.82 1623.55,-1328.25c55.309,-323.169 14.943,-687.493 -163.788,-1023.27l325.161,-325.162Z" style="fill:#fff;"/></g></svg>