<?xml version="1.0" encoding="UTF-8" standalone="no"?><!DOCTYPE svg PUBLIC "-//W3C//DTD SVG 1.1//EN" "http://www.w3.org/Graphics/SVG/1.1/DTD/svg11.dtd"><svg width="100%" height="100%" viewBox="0 0 2134 2134" version="1.1" xmlns="http://www.w3.org/2000/svg" xmlns:xlink="http://www.w3.org/1999/xlink" xml:space="preserve" xmlns:serif="http://www.serif.com/" style="fill-rule:evenodd;clip-rule:evenodd;stroke-linejoin:round;stroke-miterlimit:2;"><path d="M77.457,102.5l433.333,-100c47.083,-10.833 95.417,13.75 114.583,57.917l200,466.666c17.5,40.834 5.834,88.75 -28.75,116.667l-252.5,206.667c150,319.583 412.084,585.416 738.334,738.333l206.666,-252.5c28.334,-34.583 75.834,-46.25 116.667,-28.75l466.667,200c44.583,19.583 69.166,67.917 58.333,115l-100,433.333c-10.417,45 -50.417,77.5 -97.5,77.5c-1067.08,0 -1933.33,-864.583 -1933.33,-1933.33c-0,-46.667 32.083,-87.083 77.5,-97.5Z" style="fill:#fff;fill-rule:nonzero;"/></svg>