<?xml version="1.0" encoding="UTF-8" standalone="no"?><!DOCTYPE svg PUBLIC "-//W3C//DTD SVG 1.1//EN" "http://www.w3.org/Graphics/SVG/1.1/DTD/svg11.dtd"><svg width="100%" height="100%" viewBox="0 0 828 375" version="1.1" xmlns="http://www.w3.org/2000/svg" xmlns:xlink="http://www.w3.org/1999/xlink" xml:space="preserve" xmlns:serif="http://www.serif.com/" style="fill-rule:evenodd;clip-rule:evenodd;stroke-linejoin:round;stroke-miterlimit:2;"><rect id="Artboard3" x="0" y="0" width="827.691" height="374.106" style="fill:none;"/><clipPath id="_clip1"><rect x="0" y="0" width="827.691" height="374.106"/></clipPath><g clip-path="url(#_clip1)"><g><path d="M740.398,0.715c3.94,-2.115 8.848,-0.655 10.991,3.27c14.036,25.7 62.153,113.807 76.265,139.647c1.037,1.901 1.275,4.136 0.66,6.212c-0.615,2.077 -2.032,3.822 -3.937,4.851c-20.768,11.211 -80.634,43.529 -101.311,54.692c-3.941,2.127 -8.86,0.671 -11.008,-3.259c-14.07,-25.742 -62.298,-113.977 -76.45,-139.868c-1.04,-1.903 -1.278,-4.143 -0.66,-6.223c0.619,-2.079 2.041,-3.826 3.953,-4.851c20.827,-11.178 80.805,-43.367 101.497,-54.471Z" style="fill:#1e2f97;"/><path d="M87.781,0.056c-3.937,-2.169 -8.887,-0.736 -11.056,3.201c-14.161,25.701 -62.508,113.447 -76.669,139.149c-2.169,3.937 -0.736,8.886 3.201,11.056c20.633,11.368 80.248,44.215 100.881,55.584c3.937,2.169 8.887,0.736 11.056,-3.201c14.161,-25.702 62.508,-113.448 76.669,-139.149c2.169,-3.937 0.736,-8.887 -3.201,-11.056c-20.633,-11.368 -80.248,-44.215 -100.881,-55.584Z" style="fill:#1e2f97;"/><path d="M610.803,73.357c2.766,-1.244 6.025,-0.185 7.531,2.448c11.728,20.503 58.917,102.998 72.546,126.824c2.098,3.668 1.059,8.331 -2.398,10.761c-14.423,10.136 -50.447,35.453 -64.335,45.213c-3.311,2.327 -7.758,2.201 -10.932,-0.309c-27.927,-22.085 -156.458,-123.73 -177.298,-140.211c-1.764,-1.395 -4.146,-1.722 -6.221,-0.855c-18.053,7.551 -102.679,42.945 -102.679,42.945c-21.94,3.33 -44.422,-11.909 -35.886,-34.027l85.471,-61.81c-0,0 62.198,-20.091 81.691,-26.388c3.701,-1.195 7.721,-0.9 11.207,0.822c18.772,9.275 80.711,39.877 98.908,48.868c3.21,1.586 6.961,1.654 10.226,0.185c8.21,-3.691 24.14,-10.855 32.169,-14.466Z" style="fill:#1e2f97;"/><path d="M394.178,285.002c-4.323,-2.407 -9.492,-2.768 -14.108,-0.986c-4.616,1.782 -8.202,5.523 -9.786,10.211c-5.444,16.109 -13.087,38.723 -17.68,52.311c-2.349,6.952 0.107,14.624 6.057,18.919c2.302,1.662 4.819,3.479 7.346,5.303c4.266,3.079 9.732,3.972 14.757,2.41c5.024,-1.562 9.02,-5.397 10.788,-10.352c5.863,-16.434 13.841,-38.795 18.854,-52.847c2.737,-7.672 -0.473,-16.198 -7.59,-20.16c-2.752,-1.533 -5.722,-3.186 -8.638,-4.809Z" style="fill:#1e2f97;"/><path d="M415.659,319.048l-15.514,42.759l13.135,10.376c20.904,5.025 35.455,-10.779 27.051,-31.66l-24.672,-21.475Z" style="fill:#1e2f97;"/><path d="M349.06,259.535c-4.287,-2.799 -9.624,-3.473 -14.472,-1.826c-4.848,1.647 -8.671,5.431 -10.366,10.262c-5.677,16.183 -13.493,38.461 -18.358,52.328c-2.624,7.478 0.36,15.77 7.146,19.862c2.796,1.687 5.846,3.525 8.849,5.336c4.324,2.608 9.595,3.123 14.342,1.401c4.747,-1.722 8.462,-5.496 10.108,-10.27c5.552,-16.093 13.252,-38.412 17.974,-52.1c2.492,-7.221 -0.245,-15.211 -6.641,-19.388c-2.695,-1.76 -5.652,-3.691 -8.582,-5.605Z" style="fill:#1e2f97;"/><path d="M297.23,248.37c-4.32,-2.782 -9.682,-3.416 -14.531,-1.718c-4.85,1.698 -8.645,5.538 -10.286,10.408c-3.907,11.598 -8.709,25.851 -12.195,36.199c-2.69,7.988 0.982,16.729 8.57,20.399c2.698,1.305 5.57,2.694 8.371,4.049c4.275,2.067 9.227,2.22 13.621,0.421c4.394,-1.799 7.817,-5.381 9.414,-9.853c3.92,-10.973 8.875,-24.844 12.393,-34.693c2.606,-7.294 -0.158,-15.422 -6.67,-19.617c-2.73,-1.758 -5.724,-3.686 -8.687,-5.595Z" style="fill:#1e2f97;"/><path d="M245.197,239.69c-4.395,-3.055 -9.99,-3.812 -15.039,-2.036c-5.049,1.776 -8.938,5.868 -10.454,11.002c-1.926,6.524 -3.988,13.506 -5.745,19.457c-2.478,8.392 1.93,17.275 10.11,20.377c2.479,0.94 5.068,1.923 7.59,2.879c4.265,1.618 9.005,1.424 13.123,-0.537c4.117,-1.96 7.256,-5.517 8.69,-9.847c1.873,-5.66 3.929,-11.872 5.653,-17.081c2.32,-7.009 -0.248,-14.708 -6.311,-18.921c-2.381,-1.655 -4.992,-3.469 -7.617,-5.293Z" style="fill:#1e2f97;"/><path d="M428.278,128.581c1.641,-0.676 3.52,-0.415 4.914,0.684c20.691,16.319 176.691,139.352 176.691,139.352c10.284,24.587 -15.567,40.6 -32.428,28.758c0,-0 -123.093,-96.444 -143.631,-112.536c-1.624,-1.272 -3.957,-1.062 -5.328,0.479c-0.537,0.604 -1.109,1.248 -1.658,1.864c-0.715,0.805 -1.067,1.869 -0.971,2.941c0.095,1.073 0.628,2.058 1.474,2.724c20.091,15.818 126.284,99.428 126.284,99.428c14.181,24.022 -14.601,41.852 -27.772,31.497c-0,-0 -106.801,-83.405 -125.413,-97.939c-1.561,-1.22 -3.792,-1.058 -5.161,0.373c-0.582,0.609 -1.21,1.266 -1.813,1.896c-0.748,0.782 -1.133,1.842 -1.061,2.922c0.072,1.08 0.595,2.08 1.44,2.756c18.139,14.504 105.079,84.023 105.079,84.023c5.904,26.159 -4.092,36.367 -27.672,31.907l-51.815,-41.836c-3.256,-23.939 -17.621,-34.644 -38.808,-29.56l-10.832,-9.697c-10.229,-22.025 -36.397,-22.26 -49.639,-6.942c-11.078,-23.279 -38.896,-28.586 -53.208,-8.631c-11.222,-30.101 -44.513,-28.571 -56.777,-0c0,-0 -56.886,-32.926 -72.174,-41.775c-2.074,-1.2 -2.793,-3.847 -1.611,-5.931c11.287,-19.915 63.904,-112.743 73.78,-130.166c0.893,-1.575 2.851,-2.192 4.485,-1.413c8.084,3.931 31.049,14.574 40.704,13.927c23.336,-5.98 84.374,-26.202 87.778,-26.773c4.521,-0.758 11.649,1.32 15.406,2.59c0.49,0.16 0.848,0.583 0.926,1.093c0.077,0.509 -0.14,1.019 -0.561,1.317c-12.041,8.541 -70.89,50.216 -70.89,50.216c-23.38,26.698 4.307,59.527 41.419,53.211c0,-0 82.843,-34.161 98.843,-40.759Z" style="fill:#1e2f97;"/></g></g></svg>