<?xml version="1.0" encoding="UTF-8" standalone="no"?><!DOCTYPE svg PUBLIC "-//W3C//DTD SVG 1.1//EN" "http://www.w3.org/Graphics/SVG/1.1/DTD/svg11.dtd"><svg width="100%" height="100%" viewBox="0 0 4970 4970" version="1.1" xmlns="http://www.w3.org/2000/svg" xmlns:xlink="http://www.w3.org/1999/xlink" xml:space="preserve" xmlns:serif="http://www.serif.com/" style="fill-rule:evenodd;clip-rule:evenodd;stroke-linejoin:round;stroke-miterlimit:2;"><rect id="purpose" x="0" y="0" width="4969.66" height="4969.66" style="fill:none;"/><clipPath id="_clip1"><rect x="0" y="0" width="4969.66" height="4969.66"/></clipPath><g clip-path="url(#_clip1)"><g><path d="M84.893,4731.38l85.541,85.542l-84.893,84.892l-85.541,-85.541l84.893,-84.893Z" style="fill:#fff;"/><path d="M177.881,4300.73l85.541,85.541l-90.051,90.05l-85.541,-85.541l90.051,-90.05Z" style="fill:#fff;"/><path d="M1031.79,3295.28l-76.423,129.317l530.95,524.096l131.762,-76.548l-586.289,-576.865Z" style="fill:#fff;"/><path d="M4959.54,0c-13.583,394.882 -93.932,769.881 -216.606,1124.57c-297.592,-294.771 -595.185,-595.33 -892.778,-907.742c303.762,-119.05 667.825,-195.387 1109.38,-216.83Z" style="fill:#fff;"/><path d="M3649.37,294.38l1022.72,1011.95l-75.358,157.175l-1087.31,-1091.62l139.951,-77.511Z" style="fill:#fff;"/><path d="M3330.93,479.811l1176.12,1149.21c-558.326,906.304 -1363.46,1591.41 -2500.81,2098.68c-115.716,-89.294 -508.609,-487.318 -782.378,-756.003c438.37,-1015.76 1107.98,-1879.84 2107.06,-2491.89Zm-88.975,869.994c-220.648,0 -399.785,179.138 -399.785,399.785c-0,220.647 179.137,399.784 399.785,399.784c220.647,0 399.784,-179.137 399.784,-399.784c0,-220.647 -179.137,-399.785 -399.784,-399.785Z" style="fill:#fff;"/><path d="M2243.18,3828.46c350.34,-170.47 706.781,-374.743 1068.14,-633.408c191.601,757.914 -420.375,1327.46 -1189.78,1774.61c344.678,-523.801 415.793,-839.533 121.636,-1141.2Z" style="fill:#fff;"/><path d="M1141.2,2718.21c167.025,-372.732 362.686,-708.504 621.351,-1069.87c-714.852,-227.773 -1315.4,416.586 -1762.55,1185.99c523.801,-344.678 839.532,-410.281 1141.2,-116.124Z" style="fill:#fff;"/><circle cx="3241.96" cy="1749.59" r="218.926" style="fill:#fff;"/><path d="M436.389,4731.7l85.217,85.217l-87.612,87.611l-85.217,-85.217l87.612,-87.611Z" style="fill:#fff;"/><path d="M863.905,3955.63l85.217,85.217l-690.534,690.533l-85.217,-85.216l690.534,-690.534Z" style="fill:#fff;"/><path d="M1043.49,4134.1l85.217,85.217l-521.882,521.882l-85.216,-85.217l521.881,-521.882Z" style="fill:#fff;"/><path d="M693.674,3784.03l85.217,85.217l-430.114,430.114l-85.216,-85.217l430.113,-430.114Z" style="fill:#fff;"/></g></g></svg>