<?xml version="1.0" encoding="UTF-8" standalone="no"?>
<!DOCTYPE svg PUBLIC "-//W3C//DTD SVG 1.1//EN" "http://www.w3.org/Graphics/SVG/1.1/DTD/svg11.dtd">
<svg width="100%" height="100%" viewBox="0 0 448 322" version="1.1" xmlns="http://www.w3.org/2000/svg" xmlns:xlink="http://www.w3.org/1999/xlink" xml:space="preserve" xmlns:serif="http://www.serif.com/" style="fill-rule:evenodd;clip-rule:evenodd;stroke-linejoin:round;stroke-miterlimit:2;">
    <g transform="matrix(1,0,0,1,0,-95)">
        <path d="M0,216C0,149.7 53.7,96 120,96L128,96C145.7,96 160,110.3 160,128C160,145.7 145.7,160 128,160L120,160C89.1,160 64,185.1 64,216L64,224L128,224C163.3,224 192,252.7 192,288L192,352C192,387.3 163.3,416 128,416L64,416C28.7,416 0,387.3 0,352L0,216ZM256,216C256,149.7 309.7,96 376,96L384,96C401.7,96 416,110.3 416,128C416,145.7 401.7,160 384,160L376,160C345.1,160 320,185.1 320,216L320,224L384,224C419.3,224 448,252.7 448,288L448,352C448,387.3 419.3,416 384,416L320,416C284.7,416 256,387.3 256,352L256,216Z" style="fill:rgb(121,126,246);fill-rule:nonzero;"/>
    </g>
</svg>
