<?xml version="1.0" encoding="UTF-8" standalone="no"?><!DOCTYPE svg PUBLIC "-//W3C//DTD SVG 1.1//EN" "http://www.w3.org/Graphics/SVG/1.1/DTD/svg11.dtd"><svg width="100%" height="100%" viewBox="0 0 1047 1329" version="1.1" xmlns="http://www.w3.org/2000/svg" xmlns:xlink="http://www.w3.org/1999/xlink" xml:space="preserve" xmlns:serif="http://www.serif.com/" style="fill-rule:evenodd;clip-rule:evenodd;stroke-linejoin:round;stroke-miterlimit:2;"><rect id="Artboard2" x="0" y="0" width="1046.52" height="1328.32" style="fill:none;"/><g><path d="M1046.52,158.965l0,626.207c-44.607,277.614 -230.778,450.196 -524.271,543.152c-318.005,-106.191 -509.334,-290.72 -522.25,-585.583l0,-583.776c207.219,31.306 430.963,-48.647 522.25,-158.965c120.267,125.642 322.113,187.793 524.271,158.965Zm-317.197,409.376l0,-109.659c0,-114.287 -92.787,-207.075 -207.074,-207.075c-114.288,0 -207.075,92.788 -207.075,207.075l-0,106.681l-14.88,-0.108c-7.318,-0.052 -14.353,2.818 -19.546,7.974c-5.193,5.155 -8.114,12.17 -8.114,19.488l0,345.84c76.753,112.389 429.406,105.425 501.496,0l-0,-342.628c-0,-15.09 -12.175,-27.353 -27.265,-27.461l-17.542,-0.127Zm-337.58,-84.387c-0,-84.679 58.477,-153.428 130.506,-153.428c72.028,0 130.505,68.749 130.505,153.428l0,81.301l-261.011,-0l-0,-81.301Z" style="fill:#7dd6f6;"/><path d="M490.042,799.948c-22.26,-11.637 -37.467,-34.951 -37.467,-61.789c-0,-38.455 31.22,-69.675 69.675,-69.675c38.454,0 69.674,31.22 69.674,69.675c0,27.217 -15.639,50.81 -38.414,62.275l2.089,62.692c0.293,8.796 -2.997,17.335 -9.116,23.661c-6.119,6.326 -14.543,9.898 -23.344,9.898l-0.619,0c-17.938,0 -32.478,-14.541 -32.478,-32.478l-0,-64.259Z" style="fill:#7dd6f6;"/></g></svg>